<?xml version="1.0" encoding="utf-8"?>
<!-- Generator: Adobe Illustrator 16.0.0, SVG Export Plug-In . SVG Version: 6.00 Build 0)  -->
<!DOCTYPE svg PUBLIC "-//W3C//DTD SVG 1.1//EN" "http://www.w3.org/Graphics/SVG/1.1/DTD/svg11.dtd">
<svg version="1.1" id="Layer_1" xmlns="http://www.w3.org/2000/svg" xmlns:xlink="http://www.w3.org/1999/xlink" x="0px" y="0px"
	 width="866px" height="652.5px" viewBox="-30.5 -52.5 866 652.5" enable-background="new -30.5 -52.5 866 652.5"
	 xml:space="preserve">
<g transform="translate(50,0)">
	<text transform="matrix(1 0 0 1 -50 -7)" font-family="'ArialMT'" font-size="10">Population</text>
	<g transform="translate(0,0)">
		<g transform="translate(0,550)">
			<line fill="none" stroke="#CCCCCC" x1="0" y1="0" x2="-6" y2="0"/>
			<text transform="matrix(1 0 0 1 -14.5615 3.2002)" font-family="'ArialMT'" font-size="10">0</text>
		</g>
		<g transform="translate(0,532.9022692841854)">
			<line fill="none" stroke="#CCCCCC" x1="0" y1="0" x2="-6" y2="0"/>
			<text transform="matrix(1 0 0 1 -53.4873 3.2003)" font-family="'ArialMT'" font-size="10">5,000,000</text>
		</g>
		<g transform="translate(0,515.8045385683708)">
			<line fill="none" stroke="#CCCCCC" x1="0" y1="0" x2="-6" y2="0"/>
			<text transform="matrix(1 0 0 1 -59.0488 3.2003)" font-family="'ArialMT'" font-size="10">10,000,000</text>
		</g>
		<g transform="translate(0,498.70680785255627)">
			<line fill="none" stroke="#CCCCCC" x1="0" y1="0" x2="-6" y2="0"/>
			<text transform="matrix(1 0 0 1 -59.0488 3.2004)" font-family="'ArialMT'" font-size="10">15,000,000</text>
		</g>
		<g transform="translate(0,481.60907713674163)">
			<line fill="none" stroke="#CCCCCC" x1="0" y1="0" x2="-6" y2="0"/>
			<text transform="matrix(1 0 0 1 -59.0488 3.1995)" font-family="'ArialMT'" font-size="10">20,000,000</text>
		</g>
		<g transform="translate(0,464.51134642092705)">
			<line fill="none" stroke="#CCCCCC" x1="0" y1="0" x2="-6" y2="0"/>
			<text transform="matrix(1 0 0 1 -59.0488 3.1996)" font-family="'ArialMT'" font-size="10">25,000,000</text>
		</g>
		<g transform="translate(0,447.4136157051125)">
			<line fill="none" stroke="#CCCCCC" x1="0" y1="0" x2="-6" y2="0"/>
			<text transform="matrix(1 0 0 1 -59.0488 3.1997)" font-family="'ArialMT'" font-size="10">30,000,000</text>
		</g>
		<g transform="translate(0,430.3158849892979)">
			<line fill="none" stroke="#CCCCCC" x1="0" y1="0.001" x2="-6" y2="0.001"/>
			<text transform="matrix(1 0 0 1 -59.0488 3.1997)" font-family="'ArialMT'" font-size="10">35,000,000</text>
		</g>
		<g transform="translate(0,413.21815427348326)">
			<line fill="none" stroke="#CCCCCC" x1="0" y1="0.001" x2="-6" y2="0.001"/>
			<text transform="matrix(1 0 0 1 -59.0488 3.1998)" font-family="'ArialMT'" font-size="10">40,000,000</text>
		</g>
		<g transform="translate(0,396.1204235576687)">
			<line fill="none" stroke="#CCCCCC" x1="0" y1="0.001" x2="-6" y2="0.001"/>
			<text transform="matrix(1 0 0 1 -59.0488 3.1999)" font-family="'ArialMT'" font-size="10">45,000,000</text>
		</g>
		<g transform="translate(0,379.0226928418541)">
			<line fill="none" stroke="#CCCCCC" x1="0" y1="0" x2="-6" y2="0"/>
			<text transform="matrix(1 0 0 1 -59.0488 3.2)" font-family="'ArialMT'" font-size="10">50,000,000</text>
		</g>
		<g transform="translate(0,361.9249621260396)">
			<line fill="none" stroke="#CCCCCC" x1="0" y1="0" x2="-6" y2="0"/>
			<text transform="matrix(1 0 0 1 -59.0488 3.2001)" font-family="'ArialMT'" font-size="10">55,000,000</text>
		</g>
		<g transform="translate(0,344.82723141022495)">
			<line fill="none" stroke="#CCCCCC" x1="0" y1="0" x2="-6" y2="0"/>
			<text transform="matrix(1 0 0 1 -59.0488 3.2001)" font-family="'ArialMT'" font-size="10">60,000,000</text>
		</g>
		<g transform="translate(0,327.7295006944103)">
			<line fill="none" stroke="#CCCCCC" x1="0" y1="0" x2="-6" y2="0"/>
			<text transform="matrix(1 0 0 1 -59.0488 3.2002)" font-family="'ArialMT'" font-size="10">65,000,000</text>
		</g>
		<g transform="translate(0,310.63176997859574)">
			<line fill="none" stroke="#CCCCCC" x1="0" y1="0" x2="-6" y2="0"/>
			<text transform="matrix(1 0 0 1 -59.0488 3.2003)" font-family="'ArialMT'" font-size="10">70,000,000</text>
		</g>
		<g transform="translate(0,293.53403926278116)">
			<line fill="none" stroke="#CCCCCC" x1="0" y1="0" x2="-6" y2="0"/>
			<text transform="matrix(1 0 0 1 -59.0488 3.2003)" font-family="'ArialMT'" font-size="10">75,000,000</text>
		</g>
		<g transform="translate(0,276.4363085469666)">
			<line fill="none" stroke="#CCCCCC" x1="0" y1="0" x2="-6" y2="0"/>
			<text transform="matrix(1 0 0 1 -59.0488 3.2004)" font-family="'ArialMT'" font-size="10">80,000,000</text>
		</g>
		<g transform="translate(0,259.338577831152)">
			<line fill="none" stroke="#CCCCCC" x1="0" y1="0" x2="-6" y2="0"/>
			<text transform="matrix(1 0 0 1 -59.0488 3.2004)" font-family="'ArialMT'" font-size="10">85,000,000</text>
		</g>
		<g transform="translate(0,242.24084711533737)">
			<line fill="none" stroke="#CCCCCC" x1="0" y1="0" x2="-6" y2="0"/>
			<text transform="matrix(1 0 0 1 -59.0488 3.1996)" font-family="'ArialMT'" font-size="10">90,000,000</text>
		</g>
		<g transform="translate(0,225.14311639952282)">
			<line fill="none" stroke="#CCCCCC" x1="0" y1="0" x2="-6" y2="0"/>
			<text transform="matrix(1 0 0 1 -59.0488 3.1996)" font-family="'ArialMT'" font-size="10">95,000,000</text>
		</g>
		<g transform="translate(0,208.04538568370825)">
			<line fill="none" stroke="#CCCCCC" x1="0" y1="0" x2="-6" y2="0"/>
			<text transform="matrix(1 0 0 1 -64.6104 3.1997)" font-family="'ArialMT'" font-size="10">100,000,000</text>
		</g>
		<g transform="translate(0,190.9476549678936)">
			<line fill="none" stroke="#CCCCCC" x1="0" y1="0" x2="-6" y2="0"/>
			<text transform="matrix(1 0 0 1 -64.6104 3.1998)" font-family="'ArialMT'" font-size="10">105,000,000</text>
		</g>
		<g transform="translate(0,173.84992425207906)">
			<line fill="none" stroke="#CCCCCC" x1="0" y1="0" x2="-6" y2="0"/>
			<text transform="matrix(1 0 0 1 -63.8682 3.1999)" font-family="'ArialMT'" font-size="10">110,000,000</text>
		</g>
		<g transform="translate(0,156.75219353626443)">
			<line fill="none" stroke="#CCCCCC" x1="0" y1="0" x2="-6" y2="0"/>
			<text transform="matrix(1 0 0 1 -63.8682 3.2)" font-family="'ArialMT'" font-size="10">115,000,000</text>
		</g>
		<g transform="translate(0,139.65446282044988)">
			<line fill="none" stroke="#CCCCCC" x1="0" y1="0" x2="-6" y2="0"/>
			<text transform="matrix(1 0 0 1 -64.6104 3.2)" font-family="'ArialMT'" font-size="10">120,000,000</text>
		</g>
		<g transform="translate(0,122.55673210463526)">
			<line fill="none" stroke="#CCCCCC" x1="0" y1="0" x2="-6" y2="0"/>
			<text transform="matrix(1 0 0 1 -64.6104 3.2001)" font-family="'ArialMT'" font-size="10">125,000,000</text>
		</g>
		<g transform="translate(0,105.4590013888207)">
			<line fill="none" stroke="#CCCCCC" x1="0" y1="0" x2="-6" y2="0"/>
			<text transform="matrix(1 0 0 1 -64.6104 3.2002)" font-family="'ArialMT'" font-size="10">130,000,000</text>
		</g>
		<g transform="translate(0,88.36127067300613)">
			<line fill="none" stroke="#CCCCCC" x1="0" y1="0" x2="-6" y2="0"/>
			<text transform="matrix(1 0 0 1 -64.6104 3.2003)" font-family="'ArialMT'" font-size="10">135,000,000</text>
		</g>
		<g transform="translate(0,71.2635399571915)">
			<line fill="none" stroke="#CCCCCC" x1="0" y1="0" x2="-6" y2="0"/>
			<text transform="matrix(1 0 0 1 -64.6104 3.2003)" font-family="'ArialMT'" font-size="10">140,000,000</text>
		</g>
		<g transform="translate(0,54.16580924137694)">
			<line fill="none" stroke="#CCCCCC" x1="0" y1="0" x2="-6" y2="0"/>
			<text transform="matrix(1 0 0 1 -64.6104 3.1994)" font-family="'ArialMT'" font-size="10">145,000,000</text>
		</g>
		<g transform="translate(0,37.06807852556231)">
			<line fill="none" stroke="#CCCCCC" x1="0" y1="0" x2="-6" y2="0"/>
			<text transform="matrix(1 0 0 1 -64.6104 3.1995)" font-family="'ArialMT'" font-size="10">150,000,000</text>
		</g>
		<g transform="translate(0,19.97034780974775)">
			<line fill="none" stroke="#CCCCCC" x1="0" y1="0" x2="-6" y2="0"/>
			<text transform="matrix(1 0 0 1 -64.6104 3.1996)" font-family="'ArialMT'" font-size="10">155,000,000</text>
		</g>
		<g transform="translate(0,2.8726170939331275)">
			<line fill="none" stroke="#CCCCCC" x1="0" y1="0" x2="-6" y2="0"/>
			<text transform="matrix(1 0 0 1 -64.6104 3.1996)" font-family="'ArialMT'" font-size="10">160,000,000</text>
		</g>
		<path fill="none" stroke="#CCCCCC" d="M-6,0h6v550h-6"/>
	</g>
	<rect y="310.052" fill="#BF6969" width="138" height="239.948"/>
	<rect x="153" fill="#BF6969" width="138" height="550"/>
	<rect x="306" y="355.233" fill="#BF6969" width="138" height="194.767"/>
	<rect x="459" y="425.528" fill="#BF6969" width="138" height="124.472"/>
	<rect x="612" y="360.285" fill="#BF6969" width="138" height="189.715"/>
</g>
<g transform="translate(50,550)">
	<g transform="translate(69,0)">
		<line fill="none" stroke="#CCCCCC" x1="0" y1="0" x2="0" y2="6"/>
		<text transform="matrix(1 0 0 1 -12.7808 16.0996)" font-family="'ArialMT'" font-size="10">Africa</text>
	</g>
	<g transform="translate(222,0)">
		<line fill="none" stroke="#CCCCCC" x1="0" y1="0" x2="0" y2="6"/>
		<text transform="matrix(1 0 0 1 -9.7266 16.0996)" font-family="'ArialMT'" font-size="10">Asia</text>
	</g>
	<g transform="translate(375,0)">
		<line fill="none" stroke="#CCCCCC" x1="0" y1="0" x2="0" y2="6"/>
		<text transform="matrix(1 0 0 1 -16.123 16.0996)" font-family="'ArialMT'" font-size="10">Europe</text>
	</g>
	<g transform="translate(528,0)">
		<line fill="none" stroke="#CCCCCC" x1="0" y1="0" x2="0" y2="6"/>
		<text transform="matrix(1 0 0 1 -31.6777 16.0996)" font-family="'ArialMT'" font-size="10">North America</text>
	</g>
	<g transform="translate(681,0)">
		<line fill="none" stroke="#CCCCCC" x1="0" y1="0" x2="0" y2="6"/>
		<text transform="matrix(1 0 0 1 -32.5176 16.0996)" font-family="'ArialMT'" font-size="10">South America</text>
	</g>
	<path fill="none" stroke="#CCCCCC" d="M0,6V0h750v6"/>
</g>
<rect x="-7.5" y="563.5" fill="none" width="55" height="16"/>
<text transform="matrix(1 0 0 1 -7.5 569.8896)" font-family="'MyriadPro-Regular'" font-size="9">Continente</text>
</svg>
