<?xml version="1.0" encoding="utf-8"?>
<!-- Generator: Adobe Illustrator 16.0.0, SVG Export Plug-In . SVG Version: 6.00 Build 0)  -->
<!DOCTYPE svg PUBLIC "-//W3C//DTD SVG 1.1//EN" "http://www.w3.org/Graphics/SVG/1.1/DTD/svg11.dtd">
<svg version="1.1" id="Layer_1" xmlns="http://www.w3.org/2000/svg" xmlns:xlink="http://www.w3.org/1999/xlink" x="0px" y="0px"
	 width="847px" height="500px" viewBox="0 0 847 500" enable-background="new 0 0 847 500" xml:space="preserve">
<g transform="translate(40,0)">
	<path fill="none" stroke="#CCCCCC" d="M0,411.279c68.7,0,68.7,0,137.4,0"/>
	<path fill="none" stroke="#CCCCCC" d="M137.4,411.279c68.7,0,68.7-136.494,137.4-136.494"/>
	<path fill="none" stroke="#CCCCCC" d="M137.4,411.279c68.7,0,68.7,52.083,137.4,52.083"/>
	<path fill="none" stroke="#CCCCCC" d="M137.4,411.279c68.7,0,68.7,84.41,137.4,84.41"/>
	<path fill="none" stroke="#CCCCCC" d="M274.8,274.785c68.7,0,68.7-154.096,137.4-154.096"/>
	<path fill="none" stroke="#CCCCCC" d="M274.8,274.785c68.7,0,68.7-11.854,137.4-11.854"/>
	<path fill="none" stroke="#CCCCCC" d="M274.8,274.785c68.7,0,68.7,52.801,137.4,52.801"/>
	<path fill="none" stroke="#CCCCCC" d="M274.8,274.785c68.7,0,68.7,113.146,137.4,113.146"/>
	<path fill="none" stroke="#CCCCCC" d="M412.2,120.689c68.7,0,68.7-116.379,137.399-116.379"/>
	<path fill="none" stroke="#CCCCCC" d="M412.2,120.689c68.7,0,68.7-107.758,137.399-107.758"/>
	<path fill="none" stroke="#CCCCCC" d="M412.2,120.689c68.7,0,68.7-99.138,137.399-99.138"/>
	<path fill="none" stroke="#CCCCCC" d="M412.2,120.689c68.7,0,68.7-90.517,137.399-90.517"/>
	<path fill="none" stroke="#CCCCCC" d="M412.2,120.689c68.7,0,68.7-81.896,137.399-81.896"/>
	<path fill="none" stroke="#CCCCCC" d="M412.2,120.689c68.7,0,68.7-73.275,137.399-73.275"/>
	<path fill="none" stroke="#CCCCCC" d="M412.2,120.689c68.7,0,68.7-64.655,137.399-64.655"/>
	<path fill="none" stroke="#CCCCCC" d="M412.2,120.689c68.7,0,68.7-56.034,137.399-56.034"/>
	<path fill="none" stroke="#CCCCCC" d="M412.2,120.689c68.7,0,68.7-47.414,137.399-47.414"/>
	<path fill="none" stroke="#CCCCCC" d="M412.2,120.689c68.7,0,68.7-38.793,137.399-38.793"/>
	<path fill="none" stroke="#CCCCCC" d="M412.2,120.689c68.7,0,68.7-30.172,137.399-30.172"/>
	<path fill="none" stroke="#CCCCCC" d="M412.2,120.689c68.7,0,68.7-21.552,137.399-21.552"/>
	<path fill="none" stroke="#CCCCCC" d="M412.2,120.689c68.7,0,68.7-12.931,137.399-12.931"/>
	<path fill="none" stroke="#CCCCCC" d="M412.2,120.689c68.7,0,68.7-4.31,137.399-4.31"/>
	<path fill="none" stroke="#CCCCCC" d="M412.2,120.689c68.7,0,68.7,4.311,137.399,4.311"/>
	<path fill="none" stroke="#CCCCCC" d="M412.2,120.689c68.7,0,68.7,12.931,137.399,12.931"/>
	<path fill="none" stroke="#CCCCCC" d="M412.2,120.689c68.7,0,68.7,21.552,137.399,21.552"/>
	<path fill="none" stroke="#CCCCCC" d="M412.2,120.689c68.7,0,68.7,30.173,137.399,30.173"/>
	<path fill="none" stroke="#CCCCCC" d="M412.2,120.689c68.7,0,68.7,38.793,137.399,38.793"/>
	<path fill="none" stroke="#CCCCCC" d="M412.2,120.689c68.7,0,68.7,47.414,137.399,47.414"/>
	<path fill="none" stroke="#CCCCCC" d="M412.2,120.689c68.7,0,68.7,56.035,137.399,56.035"/>
	<path fill="none" stroke="#CCCCCC" d="M412.2,120.689c68.7,0,68.7,64.655,137.399,64.655"/>
	<path fill="none" stroke="#CCCCCC" d="M412.2,120.689c68.7,0,68.7,73.276,137.399,73.276"/>
	<path fill="none" stroke="#CCCCCC" d="M412.2,120.689c68.7,0,68.7,81.896,137.399,81.896"/>
	<path fill="none" stroke="#CCCCCC" d="M412.2,120.689c68.7,0,68.7,90.518,137.399,90.518"/>
	<path fill="none" stroke="#CCCCCC" d="M412.2,120.689c68.7,0,68.7,99.138,137.399,99.138"/>
	<path fill="none" stroke="#CCCCCC" d="M412.2,120.689c68.7,0,68.7,107.759,137.399,107.759"/>
	<path fill="none" stroke="#CCCCCC" d="M412.2,120.689c68.7,0,68.7,116.379,137.399,116.379"/>
	<path fill="none" stroke="#CCCCCC" d="M549.6,4.311c68.7,0,68.7,0,137.4,0"/>
	<path fill="none" stroke="#CCCCCC" d="M549.6,12.931c68.7,0,68.7,0,137.4,0"/>
	<path fill="none" stroke="#CCCCCC" d="M549.6,21.552c68.7,0,68.7,0,137.4,0"/>
	<path fill="none" d="M549.6,30.172c68.7,0,68.7,0,137.4,0"/>
	<path fill="none" stroke="#CCCCCC" d="M549.6,38.793c68.7,0,68.7,0,137.4,0"/>
	<path fill="none" stroke="#CCCCCC" d="M549.6,47.414c68.7,0,68.7,0,137.4,0"/>
	<path fill="none" stroke="#CCCCCC" d="M549.6,56.034c68.7,0,68.7,0,137.4,0"/>
	<path fill="none" stroke="#CCCCCC" d="M549.6,64.655c68.7,0,68.7,0,137.4,0"/>
	<path fill="none" stroke="#CCCCCC" d="M549.6,73.276c68.7,0,68.7,0,137.4,0"/>
	<path fill="none" stroke="#CCCCCC" d="M549.6,81.896c68.7,0,68.7,0,137.4,0"/>
	<path fill="none" stroke="#CCCCCC" d="M549.6,90.517c68.7,0,68.7,0,137.4,0"/>
	<path fill="none" stroke="#CCCCCC" d="M549.6,99.138c68.7,0,68.7,0,137.4,0"/>
	<path fill="none" stroke="#CCCCCC" d="M549.6,107.759c68.7,0,68.7,0,137.4,0"/>
	<path fill="none" stroke="#CCCCCC" d="M549.6,116.379c68.7,0,68.7,0,137.4,0"/>
	<path fill="none" stroke="#CCCCCC" d="M549.6,125c68.7,0,68.7,0,137.4,0"/>
	<path fill="none" stroke="#CCCCCC" d="M549.6,133.621c68.7,0,68.7,0,137.4,0"/>
	<path fill="none" stroke="#CCCCCC" d="M549.6,142.241c68.7,0,68.7,0,137.4,0"/>
	<path fill="none" stroke="#CCCCCC" d="M549.6,150.862c68.7,0,68.7,0,137.4,0"/>
	<path fill="none" stroke="#CCCCCC" d="M549.6,159.483c68.7,0,68.7,0,137.4,0"/>
	<path fill="none" stroke="#CCCCCC" d="M549.6,168.104c68.7,0,68.7,0,137.4,0"/>
	<path fill="none" stroke="#CCCCCC" d="M549.6,176.724c68.7,0,68.7,0,137.4,0"/>
	<path fill="none" stroke="#CCCCCC" d="M549.6,185.345c68.7,0,68.7,0,137.4,0"/>
	<path fill="none" stroke="#CCCCCC" d="M549.6,193.965c68.7,0,68.7,0,137.4,0"/>
	<path fill="none" stroke="#CCCCCC" d="M549.6,202.586c68.7,0,68.7,0,137.4,0"/>
	<path fill="none" stroke="#CCCCCC" d="M549.6,211.207c68.7,0,68.7,0,137.4,0"/>
	<path fill="none" stroke="#CCCCCC" d="M549.6,219.828c68.7,0,68.7,0,137.4,0"/>
	<path fill="none" stroke="#CCCCCC" d="M549.6,228.448c68.7,0,68.7,0,137.4,0"/>
	<path fill="none" stroke="#CCCCCC" d="M549.6,237.069c68.7,0,68.7,0,137.4,0"/>
	<path fill="none" stroke="#CCCCCC" d="M412.2,262.932c68.7,0,68.7-17.242,137.399-17.242"/>
	<path fill="none" stroke="#CCCCCC" d="M412.2,262.932c68.7,0,68.7-8.621,137.399-8.621"/>
	<path fill="none" stroke="#CCCCCC" d="M412.2,262.932c68.7,0,68.7,0,137.399,0"/>
	<path fill="none" stroke="#CCCCCC" d="M412.2,262.932c68.7,0,68.7,8.62,137.399,8.62"/>
	<path fill="none" stroke="#CCCCCC" d="M412.2,262.932c68.7,0,68.7,17.24,137.399,17.24"/>
	<path fill="none" stroke="#CCCCCC" d="M549.6,245.689c68.7,0,68.7,0,137.4,0"/>
	<path fill="none" stroke="#CCCCCC" d="M549.6,254.311c68.7,0,68.7,0,137.4,0"/>
	<path fill="none" stroke="#CCCCCC" d="M549.6,262.932c68.7,0,68.7,0,137.4,0"/>
	<path fill="none" stroke="#CCCCCC" d="M549.6,271.552c68.7,0,68.7,0,137.4,0"/>
	<path fill="none" stroke="#CCCCCC" d="M549.6,280.172c68.7,0,68.7,0,137.4,0"/>
	<path fill="none" stroke="#CCCCCC" d="M412.2,327.586c68.7,0,68.7-38.793,137.399-38.793"/>
	<path fill="none" stroke="#CCCCCC" d="M412.2,327.586c68.7,0,68.7-30.172,137.399-30.172"/>
	<path fill="none" stroke="#CCCCCC" d="M412.2,327.586c68.7,0,68.7-21.551,137.399-21.551"/>
	<path fill="none" stroke="#CCCCCC" d="M412.2,327.586c68.7,0,68.7-12.931,137.399-12.931"/>
	<path fill="none" stroke="#CCCCCC" d="M412.2,327.586c68.7,0,68.7-4.311,137.399-4.311"/>
	<path fill="none" stroke="#CCCCCC" d="M412.2,327.586c68.7,0,68.7,4.311,137.399,4.311"/>
	<path fill="none" stroke="#CCCCCC" d="M412.2,327.586c68.7,0,68.7,12.932,137.399,12.932"/>
	<path fill="none" stroke="#CCCCCC" d="M412.2,327.586c68.7,0,68.7,21.552,137.399,21.552"/>
	<path fill="none" stroke="#CCCCCC" d="M412.2,327.586c68.7,0,68.7,30.173,137.399,30.173"/>
	<path fill="none" stroke="#CCCCCC" d="M412.2,327.586c68.7,0,68.7,38.793,137.399,38.793"/>
	<path fill="none" stroke="#CCCCCC" d="M549.6,288.793c68.7,0,68.7,0,137.4,0"/>
	<path fill="none" stroke="#CCCCCC" d="M549.6,297.414c68.7,0,68.7,0,137.4,0"/>
	<path fill="none" stroke="#CCCCCC" d="M549.6,306.035c68.7,0,68.7,0,137.4,0"/>
	<path fill="none" stroke="#CCCCCC" d="M549.6,314.655c68.7,0,68.7,0,137.4,0"/>
	<path fill="none" stroke="#CCCCCC" d="M549.6,323.275c68.7,0,68.7,0,137.4,0"/>
	<path fill="none" stroke="#CCCCCC" d="M549.6,331.896c68.7,0,68.7,0,137.4,0"/>
	<path fill="none" stroke="#CCCCCC" d="M549.6,340.518c68.7,0,68.7,0,137.4,0"/>
	<path fill="none" stroke="#CCCCCC" d="M549.6,349.138c68.7,0,68.7,0,137.4,0"/>
	<path fill="none" stroke="#CCCCCC" d="M549.6,357.759c68.7,0,68.7,0,137.4,0"/>
	<path fill="none" stroke="#CCCCCC" d="M549.6,366.379c68.7,0,68.7,0,137.4,0"/>
	<path fill="none" stroke="#CCCCCC" d="M412.2,387.932c68.7,0,68.7-12.932,137.399-12.932"/>
	<path fill="none" stroke="#CCCCCC" d="M412.2,387.932c68.7,0,68.7-4.311,137.399-4.311"/>
	<path fill="none" stroke="#CCCCCC" d="M412.2,387.932c68.7,0,68.7,4.31,137.399,4.31"/>
	<path fill="none" stroke="#CCCCCC" d="M412.2,387.932c68.7,0,68.7,12.931,137.399,12.931"/>
	<path fill="none" stroke="#CCCCCC" d="M549.6,375c68.7,0,68.7,0,137.4,0"/>
	<path fill="none" stroke="#CCCCCC" d="M549.6,383.621c68.7,0,68.7,0,137.4,0"/>
	<path fill="none" stroke="#CCCCCC" d="M549.6,392.241c68.7,0,68.7,0,137.4,0"/>
	<path fill="none" stroke="#CCCCCC" d="M549.6,400.862c68.7,0,68.7,0,137.4,0"/>
	<path fill="none" stroke="#CCCCCC" d="M274.8,463.362c68.7,0,68.7-32.327,137.4-32.327"/>
	<path fill="none" stroke="#CCCCCC" d="M274.8,463.362c68.7,0,68.7-2.155,137.4-2.155"/>
	<path fill="none" stroke="#CCCCCC" d="M274.8,463.362c68.7,0,68.7,10.775,137.4,10.775"/>
	<path fill="none" stroke="#CCCCCC" d="M274.8,463.362c68.7,0,68.7,23.706,137.4,23.706"/>
	<path fill="none" stroke="#CCCCCC" d="M412.2,431.035c68.7,0,68.7-21.553,137.399-21.553"/>
	<path fill="none" stroke="#CCCCCC" d="M412.2,431.035c68.7,0,68.7-12.932,137.399-12.932"/>
	<path fill="none" stroke="#CCCCCC" d="M412.2,431.035c68.7,0,68.7-4.311,137.399-4.311"/>
	<path fill="none" stroke="#CCCCCC" d="M412.2,431.035c68.7,0,68.7,4.31,137.399,4.31"/>
	<path fill="none" stroke="#CCCCCC" d="M412.2,431.035c68.7,0,68.7,12.93,137.399,12.93"/>
	<path fill="none" stroke="#CCCCCC" d="M412.2,431.035c68.7,0,68.7,21.551,137.399,21.551"/>
	<path fill="none" stroke="#CCCCCC" d="M549.6,409.482c68.7,0,68.7,0,137.4,0"/>
	<path fill="none" stroke="#CCCCCC" d="M549.6,418.104c68.7,0,68.7,0,137.4,0"/>
	<path fill="none" stroke="#CCCCCC" d="M549.6,426.725c68.7,0,68.7,0,137.4,0"/>
	<path fill="none" stroke="#CCCCCC" d="M549.6,435.345c68.7,0,68.7,0,137.4,0"/>
	<path fill="none" stroke="#CCCCCC" d="M549.6,443.965c68.7,0,68.7,0,137.4,0"/>
	<path fill="none" stroke="#CCCCCC" d="M549.6,452.586c68.7,0,68.7,0,137.4,0"/>
	<path fill="none" stroke="#CCCCCC" d="M412.2,461.207c68.7,0,68.7,0,137.399,0"/>
	<path fill="none" stroke="#CCCCCC" d="M549.6,461.207c68.7,0,68.7,0,137.4,0"/>
	<path fill="none" stroke="#CCCCCC" d="M412.2,474.138c68.7,0,68.7-4.31,137.399-4.31"/>
	<path fill="none" stroke="#CCCCCC" d="M412.2,474.138c68.7,0,68.7,4.311,137.399,4.311"/>
	<path fill="none" stroke="#CCCCCC" d="M549.6,469.828c68.7,0,68.7,0,137.4,0"/>
	<path fill="none" stroke="#CCCCCC" d="M549.6,478.448c68.7,0,68.7,0,137.4,0"/>
	<path fill="none" stroke="#CCCCCC" d="M412.2,487.068c68.7,0,68.7,0,137.399,0"/>
	<path fill="none" stroke="#CCCCCC" d="M549.6,487.068c68.7,0,68.7,0,137.4,0"/>
	<path fill="none" stroke="#CCCCCC" d="M274.8,495.689c68.7,0,68.7,0,137.4,0"/>
	<path fill="none" stroke="#CCCCCC" d="M412.2,495.689c68.7,0,68.7,0,137.399,0"/>
	<path fill="none" stroke="#CCCCCC" d="M549.6,495.689c68.7,0,68.7,0,137.4,0"/>
	<g transform="translate(0,411.2787356321839)">
		<circle fill="#EEEEEE" stroke="#999999" cx="0" cy="0.001" r="4.5"/>
	</g>
	<g transform="translate(137.39999999999998,411.2787356321839)">
		<circle fill="#EEEEEE" stroke="#999999" cx="0" cy="0.001" r="4.5"/>
		<text transform="matrix(1 0 0 1 -42.1847 2.9996)" font-family="'ArialMT'" font-size="11">Animalia</text>
	</g>
	<g transform="translate(274.8,274.78448275862064)">
		<circle fill="#EEEEEE" stroke="#999999" cx="0" cy="0.001" r="4.5"/>
		<text transform="matrix(1 0 0 1 -45.2516 2.9997)" font-family="'ArialMT'" font-size="11">Chordata</text>
	</g>
	<g transform="translate(412.2,120.6896551724138)">
		<circle fill="#EEEEEE" stroke="#999999" cx="0" cy="0" r="4.5"/>
		<text transform="matrix(1 0 0 1 -50.7298 2.9998)" font-family="'ArialMT'" font-size="11">Mammalia</text>
	</g>
	<g transform="translate(549.6,4.310344827586206)">
		<circle fill="#EEEEEE" stroke="#999999" cx="0" cy="0" r="4.5"/>
		<text transform="matrix(1 0 0 1 -49.3226 3.0002)" font-family="'ArialMT'" font-size="11">Viverridae</text>
	</g>
	<g transform="translate(687,4.310344827586206)">
		<circle fill="#EEEEEE" stroke="#999999" cx="0" cy="0" r="4.5"/>
		<text transform="matrix(1 0 0 1 8 3.0002)" font-family="'ArialMT'" font-size="11">Carnivora</text>
	</g>
	<g transform="translate(549.6,12.931034482758621)">
		<circle fill="#EEEEEE" stroke="#999999" cx="0" cy="0" r="4.5"/>
		<text transform="matrix(1 0 0 1 -39.7513 2.9996)" font-family="'ArialMT'" font-size="11">Bovidae</text>
	</g>
	<g transform="translate(687,12.931034482758621)">
		<circle fill="#EEEEEE" stroke="#999999" cx="0" cy="0" r="4.5"/>
		<text transform="matrix(1 0 0 1 8 2.9996)" font-family="'ArialMT'" font-size="11">Artiodactyla</text>
	</g>
	<g transform="translate(549.6,21.551724137931036)">
		<circle fill="#EEEEEE" stroke="#999999" cx="0" cy="0" r="4.5"/>
		<text transform="matrix(1 0 0 1 -48.9301 3.0001)" font-family="'ArialMT'" font-size="11">Leporidae</text>
	</g>
	<g transform="translate(687,21.551724137931036)">
		<circle fill="#EEEEEE" stroke="#999999" cx="0" cy="0" r="4.5"/>
		<text transform="matrix(1 0 0 1 8 3.0001)" font-family="'ArialMT'" font-size="11">Lagomorpha</text>
	</g>
	<g transform="translate(549.6,30.17241379310345)">
		<circle fill="#EEEEEE" stroke="#999999" cx="0" cy="0" r="4.5"/>
		<text transform="matrix(1 0 0 1 -39.7406 2.9995)" font-family="'ArialMT'" font-size="11">Muridae</text>
	</g>
	<g transform="translate(687,30.17241379310345)">
		<circle fill="#EEEEEE" stroke="#999999" cx="0" cy="0" r="4.5"/>
		<text transform="matrix(1 0 0 1 8 2.9995)" font-family="'ArialMT'" font-size="11">Rodentia</text>
	</g>
	<g transform="translate(549.6,38.793103448275865)">
		<circle fill="#EEEEEE" stroke="#999999" cx="0" cy="0" r="4.5"/>
		<text transform="matrix(1 0 0 1 -55.0482 2.9999)" font-family="'ArialMT'" font-size="11">Balaenidae</text>
	</g>
	<g transform="translate(687,38.793103448275865)">
		<circle fill="#EEEEEE" stroke="#999999" cx="0" cy="0" r="4.5"/>
		<text transform="matrix(1 0 0 1 8 2.9999)" font-family="'ArialMT'" font-size="11">Cetacea</text>
	</g>
	<g transform="translate(549.6,47.41379310344827)">
		<circle fill="#EEEEEE" stroke="#999999" cx="0" cy="0" r="4.5"/>
		<text transform="matrix(1 0 0 1 -37.9037 3.0002)" font-family="'ArialMT'" font-size="11">Ursidae</text>
	</g>
	<g transform="translate(687,47.41379310344827)">
		<circle fill="#EEEEEE" stroke="#999999" cx="0" cy="0" r="4.5"/>
		<text transform="matrix(1 0 0 1 8 3.0002)" font-family="'ArialMT'" font-size="11">Carnivora</text>
	</g>
	<g transform="translate(549.6,56.03448275862069)">
		<circle fill="#EEEEEE" stroke="#999999" cx="0" cy="0" r="4.5"/>
		<text transform="matrix(1 0 0 1 -67.8851 2.9997)" font-family="'ArialMT'" font-size="11">Bradypodidae</text>
	</g>
	<g transform="translate(687,56.03448275862069)">
		<circle fill="#EEEEEE" stroke="#999999" cx="0" cy="0" r="4.5"/>
		<text transform="matrix(1 0 0 1 8 2.9997)" font-family="'ArialMT'" font-size="11">Pilosa</text>
	</g>
	<g transform="translate(549.6,64.65517241379311)">
		<circle fill="#EEEEEE" stroke="#999999" cx="0" cy="0" r="4.5"/>
		<text transform="matrix(1 0 0 1 -58.099 3.0001)" font-family="'ArialMT'" font-size="11">Delphinidae</text>
	</g>
	<g transform="translate(687,64.65517241379311)">
		<circle fill="#EEEEEE" stroke="#999999" cx="0" cy="0" r="4.5"/>
		<text transform="matrix(1 0 0 1 8 3.0001)" font-family="'ArialMT'" font-size="11">Cetacea</text>
	</g>
	<g transform="translate(549.6,73.27586206896551)">
		<circle fill="#EEEEEE" stroke="#999999" cx="0" cy="0" r="4.5"/>
		<text transform="matrix(1 0 0 1 -40.976 2.9995)" font-family="'ArialMT'" font-size="11">Canidae</text>
	</g>
	<g transform="translate(687,73.27586206896551)">
		<circle fill="#EEEEEE" stroke="#999999" cx="0" cy="0" r="4.5"/>
		<text transform="matrix(1 0 0 1 8 2.9995)" font-family="'ArialMT'" font-size="11">Carnivora</text>
	</g>
	<g transform="translate(549.6,81.89655172413792)">
		<circle fill="#EEEEEE" stroke="#999999" cx="0" cy="0" r="4.5"/>
		<text transform="matrix(1 0 0 1 -40.3695 2.9999)" font-family="'ArialMT'" font-size="11">Equidae</text>
	</g>
	<g transform="translate(687,81.89655172413792)">
		<circle fill="#EEEEEE" stroke="#999999" cx="0" cy="0" r="4.5"/>
		<text transform="matrix(1 0 0 1 8 2.9999)" font-family="'ArialMT'" font-size="11">Perissodactyla</text>
	</g>
	<g transform="translate(549.6,90.51724137931035)">
		<circle fill="#EEEEEE" stroke="#999999" cx="0" cy="0" r="4.5"/>
		<text transform="matrix(1 0 0 1 -59.3285 3.0004)" font-family="'ArialMT'" font-size="11">Dugongidae</text>
	</g>
	<g transform="translate(687,90.51724137931035)">
		<circle fill="#EEEEEE" stroke="#999999" cx="0" cy="0" r="4.5"/>
		<text transform="matrix(1 0 0 1 8 3.0004)" font-family="'ArialMT'" font-size="11">Sirenia</text>
	</g>
	<g transform="translate(549.6,99.13793103448276)">
		<circle fill="#EEEEEE" stroke="#999999" cx="0" cy="0" r="4.5"/>
		<text transform="matrix(1 0 0 1 -69.7113 2.9998)" font-family="'ArialMT'" font-size="11">Macropodidae</text>
	</g>
	<g transform="translate(687,99.13793103448276)">
		<circle fill="#EEEEEE" stroke="#999999" cx="0" cy="0" r="4.5"/>
		<text transform="matrix(1 0 0 1 8 2.9998)" font-family="'ArialMT'" font-size="11">Diprotodontia</text>
	</g>
	<g transform="translate(549.6,107.75862068965516)">
		<circle fill="#EEEEEE" stroke="#999999" cx="0" cy="0" r="4.5"/>
		<text transform="matrix(1 0 0 1 -47.4906 3.0002)" font-family="'ArialMT'" font-size="11">Giraffidae</text>
	</g>
	<g transform="translate(687,107.75862068965516)">
		<circle fill="#EEEEEE" stroke="#999999" cx="0" cy="0" r="4.5"/>
		<text transform="matrix(1 0 0 1 8 3.0002)" font-family="'ArialMT'" font-size="11">Artiodactyla</text>
	</g>
	<g transform="translate(549.6,116.37931034482759)">
		<circle fill="#EEEEEE" stroke="#999999" cx="0" cy="0" r="4.5"/>
		<text transform="matrix(1 0 0 1 -42.8021 2.9996)" font-family="'ArialMT'" font-size="11">Caviidae</text>
	</g>
	<g transform="translate(687,116.37931034482759)">
		<circle fill="#EEEEEE" stroke="#999999" cx="0" cy="0" r="4.5"/>
		<text transform="matrix(1 0 0 1 8 2.9996)" font-family="'ArialMT'" font-size="11">Rodentia</text>
	</g>
	<g transform="translate(549.6,125)">
		<circle fill="#EEEEEE" stroke="#999999" cx="0" cy="0" r="4.5"/>
		<text transform="matrix(1 0 0 1 -45.8695 3)" font-family="'ArialMT'" font-size="11">Phocidae</text>
	</g>
	<g transform="translate(687,125)">
		<circle fill="#EEEEEE" stroke="#999999" cx="0" cy="0" r="4.5"/>
		<text transform="matrix(1 0 0 1 8 3)" font-family="'ArialMT'" font-size="11">Carnivora</text>
	</g>
	<g transform="translate(549.6,133.6206896551724)">
		<circle fill="#EEEEEE" stroke="#999999" cx="0" cy="0" r="4.5"/>
		<text transform="matrix(1 0 0 1 -58.0941 3.0004)" font-family="'ArialMT'" font-size="11">Erinaceidae</text>
	</g>
	<g transform="translate(687,133.6206896551724)">
		<circle fill="#EEEEEE" stroke="#999999" cx="0" cy="0" r="4.5"/>
		<text transform="matrix(1 0 0 1 8 3.0004)" font-family="'ArialMT'" font-size="11">Erinaceomorpha</text>
	</g>
	<g transform="translate(549.6,142.24137931034483)">
		<circle fill="#EEEEEE" stroke="#999999" cx="0" cy="0" r="4.5"/>
		<text transform="matrix(1 0 0 1 -78.2679 2.9998)" font-family="'ArialMT'" font-size="11">Phascolarctidae</text>
	</g>
	<g transform="translate(687,142.24137931034483)">
		<circle fill="#EEEEEE" stroke="#999999" cx="0" cy="0" r="4.5"/>
		<text transform="matrix(1 0 0 1 8 2.9998)" font-family="'ArialMT'" font-size="11">Diprotodontia</text>
	</g>
	<g transform="translate(549.6,150.86206896551724)">
		<circle fill="#EEEEEE" stroke="#999999" cx="0" cy="0" r="4.5"/>
		<text transform="matrix(1 0 0 1 -36.0775 3.0002)" font-family="'ArialMT'" font-size="11">Felidae</text>
	</g>
	<g transform="translate(687,150.86206896551724)">
		<circle fill="#EEEEEE" stroke="#999999" cx="0" cy="0" r="4.5"/>
		<text transform="matrix(1 0 0 1 8 3.0002)" font-family="'ArialMT'" font-size="11">Carnivora</text>
	</g>
	<g transform="translate(549.6,159.48275862068968)">
		<circle fill="#EEEEEE" stroke="#999999" cx="0" cy="0" r="4.5"/>
		<text transform="matrix(1 0 0 1 -52.5824 2.9996)" font-family="'ArialMT'" font-size="11">Camelidae</text>
	</g>
	<g transform="translate(687,159.48275862068968)">
		<circle fill="#EEEEEE" stroke="#999999" cx="0" cy="0" r="4.5"/>
		<text transform="matrix(1 0 0 1 8 2.9996)" font-family="'ArialMT'" font-size="11">Artiodactyla</text>
	</g>
	<g transform="translate(549.6,168.10344827586206)">
		<circle fill="#EEEEEE" stroke="#999999" cx="0" cy="0" r="4.5"/>
		<text transform="matrix(1 0 0 1 -53.1957 3.0001)" font-family="'ArialMT'" font-size="11">Mustelidae</text>
	</g>
	<g transform="translate(687,168.10344827586206)">
		<circle fill="#EEEEEE" stroke="#999999" cx="0" cy="0" r="4.5"/>
		<text transform="matrix(1 0 0 1 8 3.0001)" font-family="'ArialMT'" font-size="11">Carnivora</text>
	</g>
	<g transform="translate(549.6,176.72413793103448)">
		<circle fill="#EEEEEE" stroke="#999999" cx="0" cy="0" r="4.5"/>
		<text transform="matrix(1 0 0 1 -69.722 3.0005)" font-family="'ArialMT'" font-size="11">Monodontidae</text>
	</g>
	<g transform="translate(687,176.72413793103448)">
		<circle fill="#EEEEEE" stroke="#999999" cx="0" cy="0" r="4.5"/>
		<text transform="matrix(1 0 0 1 8 3.0005)" font-family="'ArialMT'" font-size="11">Cetacea</text>
	</g>
	<g transform="translate(549.6,185.34482758620692)">
		<circle fill="#EEEEEE" stroke="#999999" cx="0" cy="0" r="4.5"/>
		<text transform="matrix(1 0 0 1 -64.2113 2.9999)" font-family="'ArialMT'" font-size="11">Dasypodidae</text>
	</g>
	<g transform="translate(687,185.34482758620692)">
		<circle fill="#EEEEEE" stroke="#999999" cx="0" cy="0" r="4.5"/>
		<text transform="matrix(1 0 0 1 8 2.9999)" font-family="'ArialMT'" font-size="11">Cingulata</text>
	</g>
	<g transform="translate(549.6,193.9655172413793)">
		<circle fill="#EEEEEE" stroke="#999999" cx="0" cy="0" r="4.5"/>
		<text transform="matrix(1 0 0 1 -89.8851 3.0003)" font-family="'ArialMT'" font-size="11">Ornithorhynchidae</text>
	</g>
	<g transform="translate(687,193.9655172413793)">
		<circle fill="#EEEEEE" stroke="#999999" cx="0" cy="0" r="4.5"/>
		<text transform="matrix(1 0 0 1 8 3.0003)" font-family="'ArialMT'" font-size="11">Monotremata</text>
	</g>
	<g transform="translate(549.6,202.58620689655172)">
		<circle fill="#EEEEEE" stroke="#999999" cx="0" cy="0" r="4.5"/>
		<text transform="matrix(1 0 0 1 -44.0219 2.9998)" font-family="'ArialMT'" font-size="11">Cervidae</text>
	</g>
	<g transform="translate(687,202.58620689655172)">
		<circle fill="#EEEEEE" stroke="#999999" cx="0" cy="0" r="4.5"/>
		<text transform="matrix(1 0 0 1 8 2.9998)" font-family="'ArialMT'" font-size="11">Artiodactyla</text>
	</g>
	<g transform="translate(549.6,211.20689655172416)">
		<circle fill="#EEEEEE" stroke="#999999" cx="0" cy="0" r="4.5"/>
		<text transform="matrix(1 0 0 1 -49.5219 3.0001)" font-family="'ArialMT'" font-size="11">Cricetidae</text>
	</g>
	<g transform="translate(687,211.20689655172416)">
		<circle fill="#EEEEEE" stroke="#999999" cx="0" cy="0" r="4.5"/>
		<text transform="matrix(1 0 0 1 8 3.0001)" font-family="'ArialMT'" font-size="11">Rodentia</text>
	</g>
	<g transform="translate(549.6,219.82758620689654)">
		<circle fill="#EEEEEE" stroke="#999999" cx="0" cy="0" r="4.5"/>
		<text transform="matrix(1 0 0 1 -52.5941 2.9996)" font-family="'ArialMT'" font-size="11">Hyaenidae</text>
	</g>
	<g transform="translate(687,219.82758620689654)">
		<circle fill="#EEEEEE" stroke="#999999" cx="0" cy="0" r="4.5"/>
		<text transform="matrix(1 0 0 1 8 2.9996)" font-family="'ArialMT'" font-size="11">Carnivora</text>
	</g>
	<g transform="translate(549.6,228.44827586206898)">
		<circle fill="#EEEEEE" stroke="#999999" cx="0" cy="0" r="4.5"/>
		<text transform="matrix(1 0 0 1 -59.9418 3)" font-family="'ArialMT'" font-size="11">Odobenidae</text>
	</g>
	<g transform="translate(687,228.44827586206898)">
		<circle fill="#EEEEEE" stroke="#999999" cx="0" cy="0" r="4.5"/>
		<text transform="matrix(1 0 0 1 8 3)" font-family="'ArialMT'" font-size="11">Carnivora</text>
	</g>
	<g transform="translate(549.6,237.0689655172414)">
		<circle fill="#EEEEEE" stroke="#999999" cx="0" cy="0" r="4.5"/>
		<text transform="matrix(1 0 0 1 -64.222 3.0004)" font-family="'ArialMT'" font-size="11">Elephantidae</text>
	</g>
	<g transform="translate(687,237.0689655172414)">
		<circle fill="#EEEEEE" stroke="#999999" cx="0" cy="0" r="4.5"/>
		<text transform="matrix(1 0 0 1 8 3.0004)" font-family="'ArialMT'" font-size="11">Proboscidea</text>
	</g>
	<g transform="translate(412.2,262.9310344827586)">
		<circle fill="#EEEEEE" stroke="#999999" cx="0" cy="0.001" r="4.5"/>
		<text transform="matrix(1 0 0 1 -36.6844 2.9996)" font-family="'ArialMT'" font-size="11">Reptilia</text>
	</g>
	<g transform="translate(549.6,245.68965517241378)">
		<circle fill="#EEEEEE" stroke="#999999" cx="0" cy="0" r="4.5"/>
		<text transform="matrix(1 0 0 1 -60.5375 2.9998)" font-family="'ArialMT'" font-size="11">Alligatoridae</text>
	</g>
	<g transform="translate(687,245.68965517241378)">
		<circle fill="#EEEEEE" stroke="#999999" cx="0" cy="0" r="4.5"/>
		<text transform="matrix(1 0 0 1 8 2.9998)" font-family="'ArialMT'" font-size="11">Crocodylia</text>
	</g>
	<g transform="translate(549.6,254.3103448275862)">
		<circle fill="#EEEEEE" stroke="#999999" cx="0" cy="0" r="4.5"/>
		<text transform="matrix(1 0 0 1 -58.7006 3.0002)" font-family="'ArialMT'" font-size="11">Chelydridae</text>
	</g>
	<g transform="translate(687,254.3103448275862)">
		<circle fill="#EEEEEE" stroke="#999999" cx="0" cy="0" r="4.5"/>
		<text transform="matrix(1 0 0 1 8 3.0002)" font-family="'ArialMT'" font-size="11">Testudines</text>
	</g>
	<g transform="translate(549.6,262.9310344827586)">
		<circle fill="#EEEEEE" stroke="#999999" cx="0" cy="0.001" r="4.5"/>
		<text transform="matrix(1 0 0 1 -34.2513 2.9996)" font-family="'ArialMT'" font-size="11">Boidae</text>
	</g>
	<g transform="translate(687,262.9310344827586)">
		<circle fill="#EEEEEE" stroke="#999999" cx="0" cy="0.001" r="4.5"/>
		<text transform="matrix(1 0 0 1 8 2.9996)" font-family="'ArialMT'" font-size="11">Squamata</text>
	</g>
	<g transform="translate(549.6,271.55172413793105)">
		<circle fill="#EEEEEE" stroke="#999999" cx="0" cy="0" r="4.5"/>
		<text transform="matrix(1 0 0 1 -81.9418 3)" font-family="'ArialMT'" font-size="11">†Pterodactylidae</text>
	</g>
	<g transform="translate(687,271.55172413793105)">
		<circle fill="#EEEEEE" stroke="#999999" cx="0" cy="0" r="4.5"/>
		<text transform="matrix(1 0 0 1 8 3)" font-family="'ArialMT'" font-size="11">†Pterosauria</text>
	</g>
	<g transform="translate(549.6,280.17241379310343)">
		<circle fill="#EEEEEE" stroke="#999999" cx="0" cy="-0.001" r="4.5"/>
		<text transform="matrix(1 0 0 1 -61.7679 3.0004)" font-family="'ArialMT'" font-size="11">Testudinidae</text>
	</g>
	<g transform="translate(687,280.17241379310343)">
		<circle fill="#EEEEEE" stroke="#999999" cx="0" cy="-0.001" r="4.5"/>
		<text transform="matrix(1 0 0 1 8 3.0004)" font-family="'ArialMT'" font-size="11">Chelonii</text>
	</g>
	<g transform="translate(412.2,327.5862068965517)">
		<circle fill="#EEEEEE" stroke="#999999" cx="0" cy="0" r="4.5"/>
		<text transform="matrix(1 0 0 1 -24.2557 2.9998)" font-family="'ArialMT'" font-size="11">Aves</text>
	</g>
	<g transform="translate(549.6,288.7931034482759)">
		<circle fill="#EEEEEE" stroke="#999999" cx="0" cy="0" r="4.5"/>
		<text transform="matrix(1 0 0 1 -36.0775 2.9999)" font-family="'ArialMT'" font-size="11">Picidae</text>
	</g>
	<g transform="translate(687,288.7931034482759)">
		<circle fill="#EEEEEE" stroke="#999999" cx="0" cy="0" r="4.5"/>
		<text transform="matrix(1 0 0 1 8 2.9999)" font-family="'ArialMT'" font-size="11">Piciformes</text>
	</g>
	<g transform="translate(549.6,297.4137931034483)">
		<circle fill="#EEEEEE" stroke="#999999" cx="0" cy="0" r="4.5"/>
		<text transform="matrix(1 0 0 1 -55.6498 3.0002)" font-family="'ArialMT'" font-size="11">Cacatuidae</text>
	</g>
	<g transform="translate(687,297.4137931034483)">
		<circle fill="#EEEEEE" stroke="#999999" cx="0" cy="0" r="4.5"/>
		<text transform="matrix(1 0 0 1 8 3.0002)" font-family="'ArialMT'" font-size="11">Psittaciformes</text>
	</g>
	<g transform="translate(549.6,306.03448275862064)">
		<circle fill="#EEEEEE" stroke="#999999" cx="0" cy="0.001" r="4.5"/>
		<text transform="matrix(1 0 0 1 -44.0219 2.9997)" font-family="'ArialMT'" font-size="11">Corvidae</text>
	</g>
	<g transform="translate(687,306.03448275862064)">
		<circle fill="#EEEEEE" stroke="#999999" cx="0" cy="0.001" r="4.5"/>
		<text transform="matrix(1 0 0 1 8 2.9997)" font-family="'ArialMT'" font-size="11">Passeriformes</text>
	</g>
	<g transform="translate(549.6,314.6551724137931)">
		<circle fill="#EEEEEE" stroke="#999999" cx="0" cy="0" r="4.5"/>
		<text transform="matrix(1 0 0 1 -58.7006 3.0001)" font-family="'ArialMT'" font-size="11">Columbidae</text>
	</g>
	<g transform="translate(687,314.6551724137931)">
		<circle fill="#EEEEEE" stroke="#999999" cx="0" cy="0" r="4.5"/>
		<text transform="matrix(1 0 0 1 8 3.0001)" font-family="'ArialMT'" font-size="11">Columbiformes</text>
	</g>
	<g transform="translate(549.6,323.2758620689655)">
		<circle fill="#EEEEEE" stroke="#999999" cx="0" cy="0" r="4.5"/>
		<text transform="matrix(1 0 0 1 -60.5482 2.9995)" font-family="'ArialMT'" font-size="11">Pelecanidae</text>
	</g>
	<g transform="translate(687,323.2758620689655)">
		<circle fill="#EEEEEE" stroke="#999999" cx="0" cy="0" r="4.5"/>
		<text transform="matrix(1 0 0 1 8 2.9995)" font-family="'ArialMT'" font-size="11">Pelecaniformes</text>
	</g>
	<g transform="translate(549.6,331.89655172413796)">
		<circle fill="#EEEEEE" stroke="#999999" cx="0" cy="0" r="4.5"/>
		<text transform="matrix(1 0 0 1 -55.0316 2.9999)" font-family="'ArialMT'" font-size="11">Passeridae</text>
	</g>
	<g transform="translate(687,331.89655172413796)">
		<circle fill="#EEEEEE" stroke="#999999" cx="0" cy="0" r="4.5"/>
		<text transform="matrix(1 0 0 1 8 2.9999)" font-family="'ArialMT'" font-size="11">Passeriformes</text>
	</g>
	<g transform="translate(549.6,340.51724137931035)">
		<circle fill="#EEEEEE" stroke="#999999" cx="0" cy="0" r="4.5"/>
		<text transform="matrix(1 0 0 1 -43.4144 3.0004)" font-family="'ArialMT'" font-size="11">Strigidae</text>
	</g>
	<g transform="translate(687,340.51724137931035)">
		<circle fill="#EEEEEE" stroke="#999999" cx="0" cy="0" r="4.5"/>
		<text transform="matrix(1 0 0 1 8 3.0004)" font-family="'ArialMT'" font-size="11">Strigiformes</text>
	</g>
	<g transform="translate(549.6,349.1379310344828)">
		<circle fill="#EEEEEE" stroke="#999999" cx="0" cy="0" r="4.5"/>
		<text transform="matrix(1 0 0 1 -64.8236 2.9998)" font-family="'ArialMT'" font-size="11">Struthionidae</text>
	</g>
	<g transform="translate(687,349.1379310344828)">
		<circle fill="#EEEEEE" stroke="#999999" cx="0" cy="0" r="4.5"/>
		<text transform="matrix(1 0 0 1 8 2.9998)" font-family="'ArialMT'" font-size="11">Struthioniformes</text>
	</g>
	<g transform="translate(549.6,357.7586206896552)">
		<circle fill="#EEEEEE" stroke="#999999" cx="0" cy="0" r="4.5"/>
		<text transform="matrix(1 0 0 1 -36.6957 3.0002)" font-family="'ArialMT'" font-size="11">Laridae</text>
	</g>
	<g transform="translate(687,357.7586206896552)">
		<circle fill="#EEEEEE" stroke="#999999" cx="0" cy="0" r="4.5"/>
		<text transform="matrix(1 0 0 1 8 3.0002)" font-family="'ArialMT'" font-size="11">Charadriiformes</text>
	</g>
	<g transform="translate(549.6,366.37931034482756)">
		<circle fill="#EEEEEE" stroke="#999999" cx="0" cy="0" r="4.5"/>
		<text transform="matrix(1 0 0 1 -66.0482 2.9996)" font-family="'ArialMT'" font-size="11">Spheniscidae</text>
	</g>
	<g transform="translate(687,366.37931034482756)">
		<circle fill="#EEEEEE" stroke="#999999" cx="0" cy="0" r="4.5"/>
		<text transform="matrix(1 0 0 1 8 2.9996)" font-family="'ArialMT'" font-size="11">Sphenisciformes</text>
	</g>
	<g transform="translate(412.2,387.9310344827586)">
		<circle fill="#EEEEEE" stroke="#999999" cx="0" cy="0.001" r="4.5"/>
		<text transform="matrix(1 0 0 1 -66.032 2.9996)" font-family="'ArialMT'" font-size="11">Actinopterygii</text>
	</g>
	<g transform="translate(549.6,375)">
		<circle fill="#EEEEEE" stroke="#999999" cx="0" cy="0" r="4.5"/>
		<text transform="matrix(1 0 0 1 -72.7777 3)" font-family="'ArialMT'" font-size="11">Tetraodontidae</text>
	</g>
	<g transform="translate(687,375)">
		<circle fill="#EEEEEE" stroke="#999999" cx="0" cy="0" r="4.5"/>
		<text transform="matrix(1 0 0 1 8 3)" font-family="'ArialMT'" font-size="11">Tetraodontiformes</text>
	</g>
	<g transform="translate(549.6,383.62068965517244)">
		<circle fill="#EEEEEE" stroke="#999999" cx="0" cy="0" r="4.5"/>
		<text transform="matrix(1 0 0 1 -54.4301 3.0004)" font-family="'ArialMT'" font-size="11">Sciaenidae</text>
	</g>
	<g transform="translate(687,383.62068965517244)">
		<circle fill="#EEEEEE" stroke="#999999" cx="0" cy="0" r="4.5"/>
		<text transform="matrix(1 0 0 1 8 3.0004)" font-family="'ArialMT'" font-size="11">Perciformes</text>
	</g>
	<g transform="translate(549.6,392.2413793103448)">
		<circle fill="#EEEEEE" stroke="#999999" cx="0" cy="0" r="4.5"/>
		<text transform="matrix(1 0 0 1 -47.7113 2.9998)" font-family="'ArialMT'" font-size="11">Lophiidae</text>
	</g>
	<g transform="translate(687,392.2413793103448)">
		<circle fill="#EEEEEE" stroke="#999999" cx="0" cy="0" r="4.5"/>
		<text transform="matrix(1 0 0 1 8 2.9998)" font-family="'ArialMT'" font-size="11">Lophiiformes</text>
	</g>
	<g transform="translate(549.6,400.8620689655172)">
		<circle fill="#EEEEEE" stroke="#999999" cx="0" cy="0" r="4.5"/>
		<text transform="matrix(1 0 0 1 -67.8851 3.0002)" font-family="'ArialMT'" font-size="11">Scorpaenidae</text>
	</g>
	<g transform="translate(687,400.8620689655172)">
		<circle fill="#EEEEEE" stroke="#999999" cx="0" cy="0" r="4.5"/>
		<text transform="matrix(1 0 0 1 8 3.0002)" font-family="'ArialMT'" font-size="11">Scorpaeniformes</text>
	</g>
	<g transform="translate(274.8,463.3620689655172)">
		<circle fill="#EEEEEE" stroke="#999999" cx="0" cy="0" r="4.5"/>
		<text transform="matrix(1 0 0 1 -54.4255 3.0002)" font-family="'ArialMT'" font-size="11">Arthropoda</text>
	</g>
	<g transform="translate(412.2,431.03448275862064)">
		<circle fill="#EEEEEE" stroke="#999999" cx="0" cy="0.001" r="4.5"/>
		<text transform="matrix(1 0 0 1 -35.4651 2.9997)" font-family="'ArialMT'" font-size="11">Insecta</text>
	</g>
	<g transform="translate(549.6,409.48275862068965)">
		<circle fill="#EEEEEE" stroke="#999999" cx="0" cy="0" r="4.5"/>
		<text transform="matrix(1 0 0 1 -64.2054 2.9997)" font-family="'ArialMT'" font-size="11">Phasmatidae</text>
	</g>
	<g transform="translate(687,409.48275862068965)">
		<circle fill="#EEEEEE" stroke="#999999" cx="0" cy="0" r="4.5"/>
		<text transform="matrix(1 0 0 1 8 2.9997)" font-family="'ArialMT'" font-size="11">Phasmatodea</text>
	</g>
	<g transform="translate(549.6,418.10344827586204)">
		<circle fill="#EEEEEE" stroke="#999999" cx="0" cy="0" r="4.5"/>
		<text transform="matrix(1 0 0 1 -45.2621 3.0001)" font-family="'ArialMT'" font-size="11">Vespidae</text>
	</g>
	<g transform="translate(687,418.10344827586204)">
		<circle fill="#EEEEEE" stroke="#999999" cx="0" cy="0" r="4.5"/>
		<text transform="matrix(1 0 0 1 8 3.0001)" font-family="'ArialMT'" font-size="11">Hymenoptera</text>
	</g>
	<g transform="translate(549.6,426.7241379310345)">
		<circle fill="#EEEEEE" stroke="#999999" cx="0" cy="0" r="4.5"/>
		<text transform="matrix(1 0 0 1 -57.476 3.0005)" font-family="'ArialMT'" font-size="11">Lampyridae</text>
	</g>
	<g transform="translate(687,426.7241379310345)">
		<circle fill="#EEEEEE" stroke="#999999" cx="0" cy="0" r="4.5"/>
		<text transform="matrix(1 0 0 1 8 3.0005)" font-family="'ArialMT'" font-size="11">Coleoptera</text>
	</g>
	<g transform="translate(549.6,435.3448275862069)">
		<circle fill="#EEEEEE" stroke="#999999" cx="0" cy="0" r="4.5"/>
		<text transform="matrix(1 0 0 1 -50.7679 2.9999)" font-family="'ArialMT'" font-size="11">Lucanidae</text>
	</g>
	<g transform="translate(687,435.3448275862069)">
		<circle fill="#EEEEEE" stroke="#999999" cx="0" cy="0" r="4.5"/>
		<text transform="matrix(1 0 0 1 8 2.9999)" font-family="'ArialMT'" font-size="11">Coleoptera</text>
	</g>
	<g transform="translate(549.6,443.96551724137936)">
		<circle fill="#EEEEEE" stroke="#999999" cx="0" cy="-0.001" r="4.5"/>
		<text transform="matrix(1 0 0 1 -64.2006 3.0003)" font-family="'ArialMT'" font-size="11">Nymphalidae</text>
	</g>
	<g transform="translate(687,443.96551724137936)">
		<circle fill="#EEEEEE" stroke="#999999" cx="0" cy="-0.001" r="4.5"/>
		<text transform="matrix(1 0 0 1 8 3.0003)" font-family="'ArialMT'" font-size="11">Lepidoptera</text>
	</g>
	<g transform="translate(549.6,452.5862068965517)">
		<circle fill="#EEEEEE" stroke="#999999" cx="0" cy="0" r="4.5"/>
		<text transform="matrix(1 0 0 1 -54.4037 2.9997)" font-family="'ArialMT'" font-size="11">Formicidae</text>
	</g>
	<g transform="translate(687,452.5862068965517)">
		<circle fill="#EEEEEE" stroke="#999999" cx="0" cy="0" r="4.5"/>
		<text transform="matrix(1 0 0 1 8 2.9997)" font-family="'ArialMT'" font-size="11">Hymenoptera</text>
	</g>
	<g transform="translate(412.2,461.2068965517241)">
		<circle fill="#EEEEEE" stroke="#999999" cx="0" cy="0" r="4.5"/>
		<text transform="matrix(1 0 0 1 -65.4144 3.0001)" font-family="'ArialMT'" font-size="11">Malacostraca</text>
	</g>
	<g transform="translate(549.6,461.2068965517241)">
		<circle fill="#EEEEEE" stroke="#999999" cx="0" cy="0" r="4.5"/>
		<text transform="matrix(1 0 0 1 -50.1498 3.0001)" font-family="'ArialMT'" font-size="11">Paguridae</text>
	</g>
	<g transform="translate(687,461.2068965517241)">
		<circle fill="#EEEEEE" stroke="#999999" cx="0" cy="0" r="4.5"/>
		<text transform="matrix(1 0 0 1 8 3.0001)" font-family="'ArialMT'" font-size="11">Decapoda</text>
	</g>
	<g transform="translate(412.2,474.1379310344828)">
		<circle fill="#EEEEEE" stroke="#999999" cx="0" cy="0" r="4.5"/>
		<text transform="matrix(1 0 0 1 -49.532 2.9998)" font-family="'ArialMT'" font-size="11">Arachnida</text>
	</g>
	<g transform="translate(549.6,469.82758620689657)">
		<circle fill="#EEEEEE" stroke="#999999" cx="0" cy="0.001" r="4.5"/>
		<text transform="matrix(1 0 0 1 -49.1234 2.9996)" font-family="'ArialMT'" font-size="11">Lycosidae</text>
	</g>
	<g transform="translate(687,469.82758620689657)">
		<circle fill="#EEEEEE" stroke="#999999" cx="0" cy="0.001" r="4.5"/>
		<text transform="matrix(1 0 0 1 8 2.9996)" font-family="'ArialMT'" font-size="11">Araneae</text>
	</g>
	<g transform="translate(549.6,478.44827586206895)">
		<circle fill="#EEEEEE" stroke="#999999" cx="0" cy="0" r="4.5"/>
		<text transform="matrix(1 0 0 1 -58.0941 3)" font-family="'ArialMT'" font-size="11">Eriophyidae</text>
	</g>
	<g transform="translate(687,478.44827586206895)">
		<circle fill="#EEEEEE" stroke="#999999" cx="0" cy="0" r="4.5"/>
		<text transform="matrix(1 0 0 1 8 3)" font-family="'ArialMT'" font-size="11">Prostigmata</text>
	</g>
	<g transform="translate(412.2,487.0689655172414)">
		<circle fill="#EEEEEE" stroke="#999999" cx="0" cy="-0.001" r="4.5"/>
		<text transform="matrix(1 0 0 1 -55.639 3.0004)" font-family="'ArialMT'" font-size="11">Chelicerata</text>
	</g>
	<g transform="translate(549.6,487.0689655172414)">
		<circle fill="#EEEEEE" stroke="#999999" cx="0" cy="-0.001" r="4.5"/>
		<text transform="matrix(1 0 0 1 -64.2113 3.0004)" font-family="'ArialMT'" font-size="11">Scorpionidae</text>
	</g>
	<g transform="translate(687,487.0689655172414)">
		<circle fill="#EEEEEE" stroke="#999999" cx="0" cy="-0.001" r="4.5"/>
		<text transform="matrix(1 0 0 1 8 3.0004)" font-family="'ArialMT'" font-size="11">Scorpiones</text>
	</g>
	<g transform="translate(274.8,495.68965517241384)">
		<circle fill="#EEEEEE" stroke="#999999" cx="0" cy="0" r="4.5"/>
		<text transform="matrix(1 0 0 1 -43.404 2.9998)" font-family="'ArialMT'" font-size="11">Mollusca</text>
	</g>
	<g transform="translate(412.2,495.68965517241384)">
		<circle fill="#EEEEEE" stroke="#999999" cx="0" cy="0" r="4.5"/>
		<text transform="matrix(1 0 0 1 -37.9036 2.9998)" font-family="'ArialMT'" font-size="11">Bivalvia</text>
	</g>
	<g transform="translate(549.6,495.68965517241384)">
		<circle fill="#EEEEEE" stroke="#999999" cx="0" cy="0" r="4.5"/>
		<text transform="matrix(1 0 0 1 -43.4037 2.9998)" font-family="'ArialMT'" font-size="11">Mytilidae</text>
	</g>
	<g transform="translate(687,495.68965517241384)">
		<circle fill="#EEEEEE" stroke="#999999" cx="0" cy="0" r="4.5"/>
		<text transform="matrix(1 0 0 1 8 2.9998)" font-family="'ArialMT'" font-size="11">Mytiloida</text>
	</g>
</g>
</svg>
