<svg width="847" height="520" xmlns="http://www.w3.org/2000/svg" version="1.1"><g transform="translate(0,10)"><g><path class="link" d="M426,245.1923076923077C634,245.1923076923077 634,220.5769230769231 842,220.5769230769231" style="stroke-width: 73.7179; fill: none; stroke: rgb(191, 105, 123); stroke-opacity: 0.4;"><title>23</title></path><path class="link" d="M426,151.85897435897436C634,151.85897435897436 634,146.85897435897436 842,146.85897435897436" style="stroke-width: 73.7179; fill: none; stroke: rgb(191, 105, 158); stroke-opacity: 0.4;"><title>23</title></path><path class="link" d="M426,338.52564102564105C634,338.52564102564105 634,294.2948717948718 842,294.2948717948718" style="stroke-width: 73.7179; fill: none; stroke: rgb(191, 105, 141); stroke-opacity: 0.4;"><title>23</title></path><path class="link" d="M5,256.6025641025639C213,256.6025641025639 213,158.26923076923077 421,158.26923076923077" style="stroke-width: 3.20513; fill: none; stroke: rgb(191, 123, 105); stroke-opacity: 0.4;"><title>1</title></path><path class="link" d="M5,259.80769230769215C213,259.80769230769215 213,251.60256410256412 421,251.60256410256412" style="stroke-width: 3.20513; fill: none; stroke: rgb(191, 123, 105); stroke-opacity: 0.4;"><title>1</title></path><path class="link" d="M5,263.0128205128203C213,263.0128205128203 213,344.93589743589746 421,344.93589743589746" style="stroke-width: 3.20513; fill: none; stroke: rgb(191, 123, 105); stroke-opacity: 0.4;"><title>1</title></path><path class="link" d="M5,40.833333333333165C213,40.833333333333165 213,123.01282051282051 421,123.01282051282051" style="stroke-width: 3.20513; fill: none; stroke: rgb(191, 141, 105); stroke-opacity: 0.4;"><title>1</title></path><path class="link" d="M5,44.03846153846137C213,44.03846153846137 213,216.34615384615387 421,216.34615384615387" style="stroke-width: 3.20513; fill: none; stroke: rgb(191, 141, 105); stroke-opacity: 0.4;"><title>1</title></path><path class="link" d="M5,47.243589743589574C213,47.243589743589574 213,309.6794871794872 421,309.6794871794872" style="stroke-width: 3.20513; fill: none; stroke: rgb(191, 141, 105); stroke-opacity: 0.4;"><title>1</title></path><path class="link" d="M5,63.65384615384599C213,63.65384615384599 213,219.55128205128207 421,219.55128205128207" style="stroke-width: 3.20513; fill: none; stroke: rgb(191, 158, 105); stroke-opacity: 0.4;"><title>1</title></path><path class="link" d="M5,60.448717948717785C213,60.448717948717785 213,126.21794871794872 421,126.21794871794872" style="stroke-width: 3.20513; fill: none; stroke: rgb(191, 158, 105); stroke-opacity: 0.4;"><title>1</title></path><path class="link" d="M5,66.8589743589742C213,66.8589743589742 213,312.8846153846154 421,312.8846153846154" style="stroke-width: 3.20513; fill: none; stroke: rgb(191, 158, 105); stroke-opacity: 0.4;"><title>1</title></path><path class="link" d="M5,80.0641025641024C213,80.0641025641024 213,129.42307692307693 421,129.42307692307693" style="stroke-width: 3.20513; fill: none; stroke: rgb(191, 176, 105); stroke-opacity: 0.4;"><title>1</title></path><path class="link" d="M5,86.47435897435881C213,86.47435897435881 213,316.0897435897436 421,316.0897435897436" style="stroke-width: 3.20513; fill: none; stroke: rgb(191, 176, 105); stroke-opacity: 0.4;"><title>1</title></path><path class="link" d="M5,83.2692307692306C213,83.2692307692306 213,222.75641025641028 421,222.75641025641028" style="stroke-width: 3.20513; fill: none; stroke: rgb(191, 176, 105); stroke-opacity: 0.4;"><title>1</title></path><path class="link" d="M5,99.67948717948701C213,99.67948717948701 213,132.62820512820514 421,132.62820512820514" style="stroke-width: 3.20513; fill: none; stroke: rgb(188, 191, 105); stroke-opacity: 0.4;"><title>1</title></path><path class="link" d="M5,102.88461538461522C213,102.88461538461522 213,225.96153846153848 421,225.96153846153848" style="stroke-width: 3.20513; fill: none; stroke: rgb(188, 191, 105); stroke-opacity: 0.4;"><title>1</title></path><path class="link" d="M5,106.08974358974342C213,106.08974358974342 213,319.2948717948718 421,319.2948717948718" style="stroke-width: 3.20513; fill: none; stroke: rgb(188, 191, 105); stroke-opacity: 0.4;"><title>1</title></path><path class="link" d="M5,119.29487179487163C213,119.29487179487163 213,135.83333333333334 421,135.83333333333334" style="stroke-width: 3.20513; fill: none; stroke: rgb(170, 191, 105); stroke-opacity: 0.4;"><title>1</title></path><path class="link" d="M5,122.49999999999983C213,122.49999999999983 213,229.16666666666669 421,229.16666666666669" style="stroke-width: 3.20513; fill: none; stroke: rgb(170, 191, 105); stroke-opacity: 0.4;"><title>1</title></path><path class="link" d="M5,125.70512820512803C213,125.70512820512803 213,322.5 421,322.5" style="stroke-width: 3.20513; fill: none; stroke: rgb(170, 191, 105); stroke-opacity: 0.4;"><title>1</title></path><path class="link" d="M5,145.32051282051268C213,145.32051282051268 213,325.70512820512823 421,325.70512820512823" style="stroke-width: 3.20513; fill: none; stroke: rgb(152, 191, 105); stroke-opacity: 0.4;"><title>1</title></path><path class="link" d="M5,138.91025641025627C213,138.91025641025627 213,139.03846153846155 421,139.03846153846155" style="stroke-width: 3.20513; fill: none; stroke: rgb(152, 191, 105); stroke-opacity: 0.4;"><title>1</title></path><path class="link" d="M5,142.11538461538447C213,142.11538461538447 213,232.3717948717949 421,232.3717948717949" style="stroke-width: 3.20513; fill: none; stroke: rgb(152, 191, 105); stroke-opacity: 0.4;"><title>1</title></path><path class="link" d="M5,158.52564102564088C213,158.52564102564088 213,142.24358974358975 421,142.24358974358975" style="stroke-width: 3.20513; fill: none; stroke: rgb(135, 191, 105); stroke-opacity: 0.4;"><title>1</title></path><path class="link" d="M5,161.73076923076908C213,161.73076923076908 213,235.5769230769231 421,235.5769230769231" style="stroke-width: 3.20513; fill: none; stroke: rgb(135, 191, 105); stroke-opacity: 0.4;"><title>1</title></path><path class="link" d="M5,164.9358974358973C213,164.9358974358973 213,328.9102564102564 421,328.9102564102564" style="stroke-width: 3.20513; fill: none; stroke: rgb(135, 191, 105); stroke-opacity: 0.4;"><title>1</title></path><path class="link" d="M5,178.1410256410255C213,178.1410256410255 213,145.44871794871796 421,145.44871794871796" style="stroke-width: 3.20513; fill: none; stroke: rgb(117, 191, 105); stroke-opacity: 0.4;"><title>1</title></path><path class="link" d="M5,184.5512820512819C213,184.5512820512819 213,332.11538461538464 421,332.11538461538464" style="stroke-width: 3.20513; fill: none; stroke: rgb(117, 191, 105); stroke-opacity: 0.4;"><title>1</title></path><path class="link" d="M5,181.3461538461537C213,181.3461538461537 213,238.7820512820513 421,238.7820512820513" style="stroke-width: 3.20513; fill: none; stroke: rgb(117, 191, 105); stroke-opacity: 0.4;"><title>1</title></path><path class="link" d="M5,204.16666666666652C213,204.16666666666652 213,335.3205128205128 421,335.3205128205128" style="stroke-width: 3.20513; fill: none; stroke: rgb(105, 191, 111); stroke-opacity: 0.4;"><title>1</title></path><path class="link" d="M5,197.7564102564101C213,197.7564102564101 213,148.65384615384616 421,148.65384615384616" style="stroke-width: 3.20513; fill: none; stroke: rgb(105, 191, 111); stroke-opacity: 0.4;"><title>1</title></path><path class="link" d="M5,200.9615384615383C213,200.9615384615383 213,241.9871794871795 421,241.9871794871795" style="stroke-width: 3.20513; fill: none; stroke: rgb(105, 191, 111); stroke-opacity: 0.4;"><title>1</title></path><path class="link" d="M5,217.37179487179472C213,217.37179487179472 213,151.85897435897436 421,151.85897435897436" style="stroke-width: 3.20513; fill: none; stroke: rgb(105, 191, 129); stroke-opacity: 0.4;"><title>1</title></path><path class="link" d="M5,220.57692307692292C213,220.57692307692292 213,245.1923076923077 421,245.1923076923077" style="stroke-width: 3.20513; fill: none; stroke: rgb(105, 191, 129); stroke-opacity: 0.4;"><title>1</title></path><path class="link" d="M5,223.78205128205113C213,223.78205128205113 213,338.52564102564105 421,338.52564102564105" style="stroke-width: 3.20513; fill: none; stroke: rgb(105, 191, 129); stroke-opacity: 0.4;"><title>1</title></path><path class="link" d="M5,236.98717948717933C213,236.98717948717933 213,155.06410256410257 421,155.06410256410257" style="stroke-width: 3.20513; fill: none; stroke: rgb(105, 191, 146); stroke-opacity: 0.4;"><title>1</title></path><path class="link" d="M5,243.39743589743574C213,243.39743589743574 213,341.7307692307692 421,341.7307692307692" style="stroke-width: 3.20513; fill: none; stroke: rgb(105, 191, 146); stroke-opacity: 0.4;"><title>1</title></path><path class="link" d="M5,240.19230769230754C213,240.19230769230754 213,248.3974358974359 421,248.3974358974359" style="stroke-width: 3.20513; fill: none; stroke: rgb(105, 191, 146); stroke-opacity: 0.4;"><title>1</title></path><path class="link" d="M5,4.807692307692138C213,4.807692307692138 213,209.93589743589746 421,209.93589743589746" style="stroke-width: 3.20513; fill: none; stroke: rgb(105, 191, 164); stroke-opacity: 0.4;"><title>1</title></path><path class="link" d="M5,1.6025641025639321C213,1.6025641025639321 213,116.6025641025641 421,116.6025641025641" style="stroke-width: 3.20513; fill: none; stroke: rgb(105, 191, 164); stroke-opacity: 0.4;"><title>1</title></path><path class="link" d="M5,8.012820512820342C213,8.012820512820342 213,303.2692307692308 421,303.2692307692308" style="stroke-width: 3.20513; fill: none; stroke: rgb(105, 191, 164); stroke-opacity: 0.4;"><title>1</title></path><path class="link" d="M5,282.62820512820497C213,282.62820512820497 213,348.14102564102564 421,348.14102564102564" style="stroke-width: 3.20513; fill: none; stroke: rgb(105, 191, 182); stroke-opacity: 0.4;"><title>1</title></path><path class="link" d="M5,276.21794871794856C213,276.21794871794856 213,161.47435897435898 421,161.47435897435898" style="stroke-width: 3.20513; fill: none; stroke: rgb(105, 191, 182); stroke-opacity: 0.4;"><title>1</title></path><path class="link" d="M5,279.4230769230768C213,279.4230769230768 213,254.80769230769232 421,254.80769230769232" style="stroke-width: 3.20513; fill: none; stroke: rgb(105, 191, 182); stroke-opacity: 0.4;"><title>1</title></path><path class="link" d="M5,27.62820512820496C213,27.62820512820496 213,306.474358974359 421,306.474358974359" style="stroke-width: 3.20513; fill: none; stroke: rgb(191, 105, 105); stroke-opacity: 0.4;"><title>1</title></path><path class="link" d="M5,299.03846153846143C213,299.03846153846143 213,258.0128205128205 421,258.0128205128205" style="stroke-width: 3.20513; fill: none; stroke: rgb(105, 182, 191); stroke-opacity: 0.4;"><title>1</title></path><path class="link" d="M5,302.2435897435896C213,302.2435897435896 213,351.34615384615387 421,351.34615384615387" style="stroke-width: 3.20513; fill: none; stroke: rgb(105, 182, 191); stroke-opacity: 0.4;"><title>1</title></path><path class="link" d="M5,318.6538461538461C213,318.6538461538461 213,261.21794871794873 421,261.21794871794873" style="stroke-width: 3.20513; fill: none; stroke: rgb(105, 164, 191); stroke-opacity: 0.4;"><title>1</title></path><path class="link" d="M5,321.85897435897425C213,321.85897435897425 213,354.55128205128204 421,354.55128205128204" style="stroke-width: 3.20513; fill: none; stroke: rgb(105, 164, 191); stroke-opacity: 0.4;"><title>1</title></path><path class="link" d="M5,315.44871794871784C213,315.44871794871784 213,167.8846153846154 421,167.8846153846154" style="stroke-width: 3.20513; fill: none; stroke: rgb(105, 164, 191); stroke-opacity: 0.4;"><title>1</title></path><path class="link" d="M5,335.0641025641025C213,335.0641025641025 213,171.0897435897436 421,171.0897435897436" style="stroke-width: 3.20513; fill: none; stroke: rgb(105, 146, 191); stroke-opacity: 0.4;"><title>1</title></path><path class="link" d="M5,341.4743589743589C213,341.4743589743589 213,357.7564102564103 421,357.7564102564103" style="stroke-width: 3.20513; fill: none; stroke: rgb(105, 146, 191); stroke-opacity: 0.4;"><title>1</title></path><path class="link" d="M5,338.2692307692307C213,338.2692307692307 213,264.4230769230769 421,264.4230769230769" style="stroke-width: 3.20513; fill: none; stroke: rgb(105, 146, 191); stroke-opacity: 0.4;"><title>1</title></path><path class="link" d="M5,357.88461538461536C213,357.88461538461536 213,267.62820512820514 421,267.62820512820514" style="stroke-width: 3.20513; fill: none; stroke: rgb(105, 129, 191); stroke-opacity: 0.4;"><title>1</title></path><path class="link" d="M5,361.08974358974353C213,361.08974358974353 213,360.96153846153845 421,360.96153846153845" style="stroke-width: 3.20513; fill: none; stroke: rgb(105, 129, 191); stroke-opacity: 0.4;"><title>1</title></path><path class="link" d="M5,354.6794871794871C213,354.6794871794871 213,174.2948717948718 421,174.2948717948718" style="stroke-width: 3.20513; fill: none; stroke: rgb(105, 129, 191); stroke-opacity: 0.4;"><title>1</title></path><path class="link" d="M5,377.5C213,377.5 213,270.8333333333333 421,270.8333333333333" style="stroke-width: 3.20513; fill: none; stroke: rgb(105, 111, 191); stroke-opacity: 0.4;"><title>1</title></path><path class="link" d="M5,380.7051282051282C213,380.7051282051282 213,364.1666666666667 421,364.1666666666667" style="stroke-width: 3.20513; fill: none; stroke: rgb(105, 111, 191); stroke-opacity: 0.4;"><title>1</title></path><path class="link" d="M5,374.29487179487177C213,374.29487179487177 213,177.5 421,177.5" style="stroke-width: 3.20513; fill: none; stroke: rgb(105, 111, 191); stroke-opacity: 0.4;"><title>1</title></path><path class="link" d="M5,393.9102564102564C213,393.9102564102564 213,180.7051282051282 421,180.7051282051282" style="stroke-width: 3.20513; fill: none; stroke: rgb(117, 105, 191); stroke-opacity: 0.4;"><title>1</title></path><path class="link" d="M5,400.3205128205128C213,400.3205128205128 213,367.37179487179486 421,367.37179487179486" style="stroke-width: 3.20513; fill: none; stroke: rgb(117, 105, 191); stroke-opacity: 0.4;"><title>1</title></path><path class="link" d="M5,397.11538461538464C213,397.11538461538464 213,274.03846153846155 421,274.03846153846155" style="stroke-width: 3.20513; fill: none; stroke: rgb(117, 105, 191); stroke-opacity: 0.4;"><title>1</title></path><path class="link" d="M5,419.93589743589746C213,419.93589743589746 213,370.5769230769231 421,370.5769230769231" style="stroke-width: 3.20513; fill: none; stroke: rgb(135, 105, 191); stroke-opacity: 0.4;"><title>1</title></path><path class="link" d="M5,413.52564102564105C213,413.52564102564105 213,183.91025641025644 421,183.91025641025644" style="stroke-width: 3.20513; fill: none; stroke: rgb(135, 105, 191); stroke-opacity: 0.4;"><title>1</title></path><path class="link" d="M5,416.7307692307693C213,416.7307692307693 213,277.2435897435897 421,277.2435897435897" style="stroke-width: 3.20513; fill: none; stroke: rgb(135, 105, 191); stroke-opacity: 0.4;"><title>1</title></path><path class="link" d="M5,439.5512820512821C213,439.5512820512821 213,373.78205128205127 421,373.78205128205127" style="stroke-width: 3.20513; fill: none; stroke: rgb(152, 105, 191); stroke-opacity: 0.4;"><title>1</title></path><path class="link" d="M5,436.3461538461539C213,436.3461538461539 213,280.44871794871796 421,280.44871794871796" style="stroke-width: 3.20513; fill: none; stroke: rgb(152, 105, 191); stroke-opacity: 0.4;"><title>1</title></path><path class="link" d="M5,433.1410256410257C213,433.1410256410257 213,187.1153846153846 421,187.1153846153846" style="stroke-width: 3.20513; fill: none; stroke: rgb(152, 105, 191); stroke-opacity: 0.4;"><title>1</title></path><path class="link" d="M5,455.96153846153857C213,455.96153846153857 213,283.65384615384613 421,283.65384615384613" style="stroke-width: 3.20513; fill: none; stroke: rgb(170, 105, 191); stroke-opacity: 0.4;"><title>1</title></path><path class="link" d="M5,452.75641025641033C213,452.75641025641033 213,190.32051282051285 421,190.32051282051285" style="stroke-width: 3.20513; fill: none; stroke: rgb(170, 105, 191); stroke-opacity: 0.4;"><title>1</title></path><path class="link" d="M5,459.16666666666674C213,459.16666666666674 213,376.9871794871795 421,376.9871794871795" style="stroke-width: 3.20513; fill: none; stroke: rgb(170, 105, 191); stroke-opacity: 0.4;"><title>1</title></path><path class="link" d="M5,475.5769230769232C213,475.5769230769232 213,286.85897435897436 421,286.85897435897436" style="stroke-width: 3.20513; fill: none; stroke: rgb(188, 105, 191); stroke-opacity: 0.4;"><title>1</title></path><path class="link" d="M5,472.371794871795C213,472.371794871795 213,193.52564102564102 421,193.52564102564102" style="stroke-width: 3.20513; fill: none; stroke: rgb(188, 105, 191); stroke-opacity: 0.4;"><title>1</title></path><path class="link" d="M5,478.7820512820514C213,478.7820512820514 213,380.1923076923077 421,380.1923076923077" style="stroke-width: 3.20513; fill: none; stroke: rgb(188, 105, 191); stroke-opacity: 0.4;"><title>1</title></path><path class="link" d="M5,495.19230769230785C213,495.19230769230785 213,290.06410256410254 421,290.06410256410254" style="stroke-width: 3.20513; fill: none; stroke: rgb(191, 105, 176); stroke-opacity: 0.4;"><title>1</title></path><path class="link" d="M5,491.9871794871796C213,491.9871794871796 213,196.73076923076925 421,196.73076923076925" style="stroke-width: 3.20513; fill: none; stroke: rgb(191, 105, 176); stroke-opacity: 0.4;"><title>1</title></path><path class="link" d="M5,498.397435897436C213,498.397435897436 213,383.3974358974359 421,383.3974358974359" style="stroke-width: 3.20513; fill: none; stroke: rgb(191, 105, 176); stroke-opacity: 0.4;"><title>1</title></path><path class="link" d="M426,190.32051282051285C634,190.32051282051285 634,342.7564102564103 842,342.7564102564103" style="stroke-width: 3.20513; fill: none; stroke: rgb(191, 105, 158); stroke-opacity: 0.4;"><title>1</title></path><path class="link" d="M426,193.52564102564102C634,193.52564102564102 634,362.3717948717949 842,362.3717948717949" style="stroke-width: 3.20513; fill: none; stroke: rgb(191, 105, 158); stroke-opacity: 0.4;"><title>1</title></path><path class="link" d="M426,196.73076923076925C634,196.73076923076925 634,381.98717948717956 842,381.98717948717956" style="stroke-width: 3.20513; fill: none; stroke: rgb(191, 105, 158); stroke-opacity: 0.4;"><title>1</title></path><path class="link" d="M5,21.21794871794855C213,21.21794871794855 213,119.8076923076923 421,119.8076923076923" style="stroke-width: 3.20513; fill: none; stroke: rgb(191, 105, 105); stroke-opacity: 0.4;"><title>1</title></path><path class="link" d="M426,376.9871794871795C634,376.9871794871795 634,349.1666666666667 842,349.1666666666667" style="stroke-width: 3.20513; fill: none; stroke: rgb(191, 105, 141); stroke-opacity: 0.4;"><title>1</title></path><path class="link" d="M426,380.1923076923077C634,380.1923076923077 634,368.7820512820513 842,368.7820512820513" style="stroke-width: 3.20513; fill: none; stroke: rgb(191, 105, 141); stroke-opacity: 0.4;"><title>1</title></path><path class="link" d="M426,383.3974358974359C634,383.3974358974359 634,388.39743589743597 842,388.39743589743597" style="stroke-width: 3.20513; fill: none; stroke: rgb(191, 105, 141); stroke-opacity: 0.4;"><title>1</title></path><path class="link" d="M5,24.423076923076753C213,24.423076923076753 213,213.14102564102566 421,213.14102564102566" style="stroke-width: 3.20513; fill: none; stroke: rgb(191, 105, 105); stroke-opacity: 0.4;"><title>1</title></path><path class="link" d="M426,283.65384615384613C634,283.65384615384613 634,345.9615384615385 842,345.9615384615385" style="stroke-width: 3.20513; fill: none; stroke: rgb(191, 105, 123); stroke-opacity: 0.4;"><title>1</title></path><path class="link" d="M426,286.85897435897436C634,286.85897435897436 634,365.57692307692315 842,365.57692307692315" style="stroke-width: 3.20513; fill: none; stroke: rgb(191, 105, 123); stroke-opacity: 0.4;"><title>1</title></path><path class="link" d="M426,290.06410256410254C634,290.06410256410254 634,385.1923076923078 842,385.1923076923078" style="stroke-width: 3.20513; fill: none; stroke: rgb(191, 105, 123); stroke-opacity: 0.4;"><title>1</title></path><path class="link" d="M5,295.8333333333332C213,295.8333333333332 213,164.67948717948718 421,164.67948717948718" style="stroke-width: 3.20513; fill: none; stroke: rgb(105, 182, 191); stroke-opacity: 0.4;"><title>1</title></path></g><g><g class="node" transform="translate(421,115)"><rect height="83.33333333333334" width="5"><title>English
26</title></rect><text x="11" y="41.66666666666667" dy=".35em" text-anchor="start" style="font-size: 11px; font-family: Arial, Helvetica; pointer-events: none;">English</text></g><g class="node" transform="translate(421,208.33333333333334)"><rect height="83.33333333333334" width="5"><title>German
26</title></rect><text x="11" y="41.66666666666667" dy=".35em" text-anchor="start" style="font-size: 11px; font-family: Arial, Helvetica; pointer-events: none;">German</text></g><g class="node" transform="translate(421,301.6666666666667)"><rect height="83.33333333333334" width="5"><title>Italian
26</title></rect><text x="11" y="41.66666666666667" dy=".35em" text-anchor="start" style="font-size: 11px; font-family: Arial, Helvetica; pointer-events: none;">Italian</text></g><g class="node" transform="translate(0,19.615384615384446)"><rect height="9.615384615384617" width="5"><title>a
3</title></rect><text x="11" y="4.807692307692308" dy=".35em" text-anchor="start" style="font-size: 11px; font-family: Arial, Helvetica; pointer-events: none;">a</text></g><g class="node" transform="translate(0,254.99999999999983)"><rect height="9.615384615384617" width="5"><title>b
3</title></rect><text x="11" y="4.807692307692308" dy=".35em" text-anchor="start" style="font-size: 11px; font-family: Arial, Helvetica; pointer-events: none;">b</text></g><g class="node" transform="translate(0,39.23076923076906)"><rect height="9.615384615384617" width="5"><title>c
3</title></rect><text x="11" y="4.807692307692308" dy=".35em" text-anchor="start" style="font-size: 11px; font-family: Arial, Helvetica; pointer-events: none;">c</text></g><g class="node" transform="translate(0,58.84615384615368)"><rect height="9.615384615384617" width="5"><title>d
3</title></rect><text x="11" y="4.807692307692308" dy=".35em" text-anchor="start" style="font-size: 11px; font-family: Arial, Helvetica; pointer-events: none;">d</text></g><g class="node" transform="translate(0,78.4615384615383)"><rect height="9.615384615384617" width="5"><title>e
3</title></rect><text x="11" y="4.807692307692308" dy=".35em" text-anchor="start" style="font-size: 11px; font-family: Arial, Helvetica; pointer-events: none;">e</text></g><g class="node" transform="translate(0,98.07692307692291)"><rect height="9.615384615384617" width="5"><title>f
3</title></rect><text x="11" y="4.807692307692308" dy=".35em" text-anchor="start" style="font-size: 11px; font-family: Arial, Helvetica; pointer-events: none;">f</text></g><g class="node" transform="translate(0,117.69230769230752)"><rect height="9.615384615384617" width="5"><title>g
3</title></rect><text x="11" y="4.807692307692308" dy=".35em" text-anchor="start" style="font-size: 11px; font-family: Arial, Helvetica; pointer-events: none;">g</text></g><g class="node" transform="translate(0,137.30769230769215)"><rect height="9.615384615384617" width="5"><title>h
3</title></rect><text x="11" y="4.807692307692308" dy=".35em" text-anchor="start" style="font-size: 11px; font-family: Arial, Helvetica; pointer-events: none;">h</text></g><g class="node" transform="translate(0,156.92307692307676)"><rect height="9.615384615384617" width="5"><title>i
3</title></rect><text x="11" y="4.807692307692308" dy=".35em" text-anchor="start" style="font-size: 11px; font-family: Arial, Helvetica; pointer-events: none;">i</text></g><g class="node" transform="translate(0,176.53846153846138)"><rect height="9.615384615384617" width="5"><title>j
3</title></rect><text x="11" y="4.807692307692308" dy=".35em" text-anchor="start" style="font-size: 11px; font-family: Arial, Helvetica; pointer-events: none;">j</text></g><g class="node" transform="translate(0,196.153846153846)"><rect height="9.615384615384617" width="5"><title>k
3</title></rect><text x="11" y="4.807692307692308" dy=".35em" text-anchor="start" style="font-size: 11px; font-family: Arial, Helvetica; pointer-events: none;">k</text></g><g class="node" transform="translate(0,215.7692307692306)"><rect height="9.615384615384617" width="5"><title>l
3</title></rect><text x="11" y="4.807692307692308" dy=".35em" text-anchor="start" style="font-size: 11px; font-family: Arial, Helvetica; pointer-events: none;">l</text></g><g class="node" transform="translate(0,235.38461538461522)"><rect height="9.615384615384617" width="5"><title>m
3</title></rect><text x="11" y="4.807692307692308" dy=".35em" text-anchor="start" style="font-size: 11px; font-family: Arial, Helvetica; pointer-events: none;">m</text></g><g class="node" transform="translate(0,-1.7053025658242404e-13)"><rect height="9.615384615384617" width="5"><title>n
3</title></rect><text x="11" y="4.807692307692308" dy=".35em" text-anchor="start" style="font-size: 11px; font-family: Arial, Helvetica; pointer-events: none;">n</text></g><g class="node" transform="translate(0,274.61538461538447)"><rect height="9.615384615384617" width="5"><title>o
3</title></rect><text x="11" y="4.807692307692308" dy=".35em" text-anchor="start" style="font-size: 11px; font-family: Arial, Helvetica; pointer-events: none;">o</text></g><g class="node" transform="translate(0,294.2307692307691)"><rect height="9.615384615384617" width="5"><title>p
3</title></rect><text x="11" y="4.807692307692308" dy=".35em" text-anchor="start" style="font-size: 11px; font-family: Arial, Helvetica; pointer-events: none;">p</text></g><g class="node" transform="translate(0,313.84615384615375)"><rect height="9.615384615384617" width="5"><title>q
3</title></rect><text x="11" y="4.807692307692308" dy=".35em" text-anchor="start" style="font-size: 11px; font-family: Arial, Helvetica; pointer-events: none;">q</text></g><g class="node" transform="translate(0,333.4615384615384)"><rect height="9.615384615384617" width="5"><title>r
3</title></rect><text x="11" y="4.807692307692308" dy=".35em" text-anchor="start" style="font-size: 11px; font-family: Arial, Helvetica; pointer-events: none;">r</text></g><g class="node" transform="translate(0,353.07692307692304)"><rect height="9.615384615384617" width="5"><title>s
3</title></rect><text x="11" y="4.807692307692308" dy=".35em" text-anchor="start" style="font-size: 11px; font-family: Arial, Helvetica; pointer-events: none;">s</text></g><g class="node" transform="translate(0,372.6923076923077)"><rect height="9.615384615384617" width="5"><title>t
3</title></rect><text x="11" y="4.807692307692308" dy=".35em" text-anchor="start" style="font-size: 11px; font-family: Arial, Helvetica; pointer-events: none;">t</text></g><g class="node" transform="translate(0,392.3076923076923)"><rect height="9.615384615384617" width="5"><title>u
3</title></rect><text x="11" y="4.807692307692308" dy=".35em" text-anchor="start" style="font-size: 11px; font-family: Arial, Helvetica; pointer-events: none;">u</text></g><g class="node" transform="translate(0,411.92307692307696)"><rect height="9.615384615384617" width="5"><title>v
3</title></rect><text x="11" y="4.807692307692308" dy=".35em" text-anchor="start" style="font-size: 11px; font-family: Arial, Helvetica; pointer-events: none;">v</text></g><g class="node" transform="translate(0,431.5384615384616)"><rect height="9.615384615384617" width="5"><title>w
3</title></rect><text x="11" y="4.807692307692308" dy=".35em" text-anchor="start" style="font-size: 11px; font-family: Arial, Helvetica; pointer-events: none;">w</text></g><g class="node" transform="translate(0,451.15384615384625)"><rect height="9.615384615384617" width="5"><title>x
3</title></rect><text x="11" y="4.807692307692308" dy=".35em" text-anchor="start" style="font-size: 11px; font-family: Arial, Helvetica; pointer-events: none;">x</text></g><g class="node" transform="translate(0,470.7692307692309)"><rect height="9.615384615384617" width="5"><title>y
3</title></rect><text x="11" y="4.807692307692308" dy=".35em" text-anchor="start" style="font-size: 11px; font-family: Arial, Helvetica; pointer-events: none;">y</text></g><g class="node" transform="translate(0,490.38461538461553)"><rect height="9.615384615384617" width="5"><title>z
3</title></rect><text x="11" y="4.807692307692308" dy=".35em" text-anchor="start" style="font-size: 11px; font-family: Arial, Helvetica; pointer-events: none;">z</text></g><g class="node" transform="translate(842,341.1538461538462)"><rect height="9.615384615384617" width="5" style="fill: rgb(102, 102, 102);"><title>1
3</title></rect><text x="-6" y="4.807692307692308" dy=".35em" text-anchor="end" style="font-size: 11px; font-family: Arial, Helvetica; pointer-events: none;">1</text></g><g class="node" transform="translate(842,360.76923076923083)"><rect height="9.615384615384617" width="5" style="fill: rgb(102, 102, 102);"><title>2
3</title></rect><text x="-6" y="4.807692307692308" dy=".35em" text-anchor="end" style="font-size: 11px; font-family: Arial, Helvetica; pointer-events: none;">2</text></g><g class="node" transform="translate(842,380.3846153846155)"><rect height="9.615384615384617" width="5" style="fill: rgb(102, 102, 102);"><title>3
3</title></rect><text x="-6" y="4.807692307692308" dy=".35em" text-anchor="end" style="font-size: 11px; font-family: Arial, Helvetica; pointer-events: none;">3</text></g><g class="node" transform="translate(842,110)"><rect height="221.15384615384616" width="5" style="fill: rgb(102, 102, 102);"><title>other
69</title></rect><text x="-6" y="110.57692307692308" dy=".35em" text-anchor="end" style="font-size: 11px; font-family: Arial, Helvetica; pointer-events: none;">other</text></g></g></g></svg>