<?xml version="1.0" encoding="utf-8"?>
<!-- Generator: Adobe Illustrator 16.0.0, SVG Export Plug-In . SVG Version: 6.00 Build 0)  -->
<!DOCTYPE svg PUBLIC "-//W3C//DTD SVG 1.1//EN" "http://www.w3.org/Graphics/SVG/1.1/DTD/svg11.dtd">
<svg version="1.1" id="Layer_1" xmlns="http://www.w3.org/2000/svg" xmlns:xlink="http://www.w3.org/1999/xlink" x="0px" y="0px"
	 width="800px" height="1900.5px" viewBox="0 -100.5 800 1900.5" enable-background="new 0 -100.5 800 1900.5" xml:space="preserve"
	>
<g transform="translate(100,100)">
	<g>
		<path fill="#D696C8" d="M-7.156-94.73C-4.775-94.91-2.388-95,0-95V0L-7.156-94.73z"/>
	</g>
	<g>
		<path fill="#D16BBB" d="M-90.888-27.648C-79.483-65.138-46.23-91.778-7.156-94.73L0,0L-90.888-27.648z"/>
	</g>
	<g>
		<path fill="#BD37A0" d="M0-95c52.467,0,95,42.533,95,95S52.467,95,0,95c-52.467,0-95-42.533-95-95
			c0-9.369,1.386-18.686,4.112-27.648L0,0V-95z"/>
	</g>
	<text transform="matrix(1 0 0 1 -33.0186 105)" font-family="'ArialMT'" font-size="11">United States</text>
</g>
<g transform="translate(300,100)">
	<g>
		<path fill="#D696C8" d="M-39.684-61.672C-27.849-69.287-14.073-73.336,0-73.336V0L-39.684-61.672z"/>
	</g>
	<g>
		<path fill="#D16BBB" d="M7.818,72.918c-40.271,4.318-76.419-24.828-80.737-65.1c-2.958-27.585,9.904-54.478,33.234-69.49L0,0
			L7.818,72.918z"/>
	</g>
	<g>
		<path fill="#BD37A0" d="M0-73.336c40.503,0,73.336,32.834,73.336,73.336c0.001,37.476-28.255,68.923-65.518,72.918L0,0V-73.336z"
			/>
	</g>
	<text transform="matrix(1 0 0 1 -14.3701 83.3359)" font-family="'ArialMT'" font-size="11">China</text>
</g>
<g transform="translate(500,100)">
	<g>
		<path fill="#D696C8" d="M-3.682-48.792c1.225-0.093,2.453-0.139,3.682-0.139V0L-3.682-48.792z"/>
	</g>
	<g>
		<path fill="#D16BBB" d="M-47.635,11.188c-6.178-26.308,10.14-52.644,36.447-58.822c2.468-0.58,4.978-0.966,7.506-1.157L0,0
			L-47.635,11.188z"/>
	</g>
	<g>
		<path fill="#BD37A0" d="M0-48.931c27.023,0,48.931,21.907,48.931,48.931S27.023,48.93,0,48.93
			c-22.714,0-42.441-15.631-47.635-37.743L0,0V-48.931z"/>
	</g>
	<text transform="matrix(1 0 0 1 -14.9854 58.9307)" font-family="'ArialMT'" font-size="11">Japan</text>
</g>
<g transform="translate(700,100)">
	<g>
		<path fill="#D696C8" d="M-2.247-44.661c0.749-0.038,1.498-0.057,2.247-0.057V0L-2.247-44.661z"/>
	</g>
	<g>
		<path fill="#D16BBB" d="M-43.382,10.849c-5.991-23.959,8.574-48.239,32.533-54.23c2.819-0.705,5.7-1.134,8.602-1.279L0,0
			L-43.382,10.849z"/>
	</g>
	<g>
		<path fill="#BD37A0" d="M0-44.718c24.697,0,44.718,20.021,44.718,44.718S24.697,44.718,0,44.718
			c-20.519,0-38.404-13.964-43.382-33.869L0,0V-44.718z"/>
	</g>
	<text transform="matrix(1 0 0 1 -22.6172 54.7178)" font-family="'ArialMT'" font-size="11">Germany</text>
</g>
<g transform="translate(100,300)">
	<g>
		<path fill="#D696C8" d="M-1.718-39.025C-1.146-39.05-0.573-39.063,0-39.063V0L-1.718-39.025z"/>
	</g>
	<g>
		<path fill="#D16BBB" d="M-38.227-8.042c3.671-17.451,18.694-30.2,36.509-30.984L0,0L-38.227-8.042z"/>
	</g>
	<g>
		<path fill="#BD37A0" d="M0-39.063c21.574,0,39.063,17.489,39.063,39.063S21.574,39.063,0,39.063S-39.063,21.574-39.063,0
			c0-2.702,0.28-5.397,0.836-8.042L0,0V-39.063z"/>
	</g>
	<text transform="matrix(1 0 0 1 -39.1338 49.0635)" font-family="'ArialMT'" font-size="11">United Kingdom</text>
</g>
<g transform="translate(300,300)">
	<g>
		<path fill="#D696C8" d="M-4.574-38.133c1.518-0.182,3.045-0.273,4.574-0.273V0L-4.574-38.133z"/>
	</g>
	<g>
		<path fill="#D16BBB" d="M-36.672-11.408c4.497-14.456,17.067-24.921,32.098-26.725L0,0L-36.672-11.408z"/>
	</g>
	<g>
		<path fill="#BD37A0" d="M0-38.406c21.211,0,38.406,17.195,38.406,38.406S21.211,38.406,0,38.406S-38.406,21.211-38.406,0
			c0-3.868,0.584-7.714,1.733-11.408L0,0V-38.406z"/>
	</g>
	<text transform="matrix(1 0 0 1 -17.1177 48.4062)" font-family="'ArialMT'" font-size="11">France</text>
</g>
<g transform="translate(500,300)">
	<g>
		<path fill="#D696C8" d="M-11.621-32.926c3.733-1.317,7.663-1.99,11.621-1.99V0L-11.621-32.926z"/>
	</g>
	<g>
		<path fill="#D16BBB" d="M-30.807,16.435c-9.076-17.014-2.643-38.165,14.371-47.241c1.55-0.827,3.159-1.535,4.814-2.12L0,0
			L-30.807,16.435z"/>
	</g>
	<g>
		<path fill="#BD37A0" d="M0-34.916c19.283,0,34.916,15.632,34.916,34.916S19.283,34.916,0,34.916
			c-12.894,0-24.737-7.105-30.807-18.481L0,0V-34.916z"/>
	</g>
	<text transform="matrix(1 0 0 1 -13.7529 44.916)" font-family="'ArialMT'" font-size="11">Brazil</text>
</g>
<g transform="translate(700,300)">
	<g>
		<path fill="#D696C8" d="M-4.181-33.097C-2.794-33.272-1.397-33.36,0-33.36V0L-4.181-33.097z"/>
	</g>
	<g>
		<path fill="#D16BBB" d="M-33.266,2.513c-1.338-17.722,11.452-33.382,29.085-35.609L0,0L-33.266,2.513z"/>
	</g>
	<g>
		<path fill="#BD37A0" d="M0-33.36c18.424,0,33.36,14.936,33.36,33.36S18.424,33.36,0,33.36c-17.449,0-31.951-13.447-33.266-30.847
			L0,0V-33.36z"/>
	</g>
	<text transform="matrix(1 0 0 1 -10.0869 43.3604)" font-family="'ArialMT'" font-size="11">Italy</text>
</g>
<g transform="translate(100,500)">
	<g>
		<path fill="#D696C8" d="M-28.927-15.009C-23.323-25.81-12.168-32.589,0-32.589V0L-28.927-15.009z"/>
	</g>
	<g>
		<path fill="#D16BBB" d="M-13.584,29.623c-16.36-7.503-23.541-26.847-16.039-43.208c0.22-0.48,0.452-0.956,0.696-1.424L0,0
			L-13.584,29.623z"/>
	</g>
	<g>
		<path fill="#BD37A0" d="M0-32.589c17.999,0,32.589,14.591,32.589,32.589c0,17.998-14.591,32.589-32.589,32.589
			c-4.689,0-9.322-1.012-13.584-2.966L0,0V-32.589z"/>
	</g>
	<text transform="matrix(1 0 0 1 -11.9268 42.5889)" font-family="'ArialMT'" font-size="11">India</text>
</g>
<g transform="translate(300,500)">
	<g>
		<path fill="#D696C8" d="M-7.526-30.096c2.461-0.615,4.989-0.927,7.526-0.927V0L-7.526-30.096z"/>
	</g>
	<g>
		<path fill="#D16BBB" d="M-18.392,24.982C-32.189,14.825-35.14-4.594-24.982-18.392c4.28-5.813,10.453-9.953,17.457-11.704L0,0
			L-18.392,24.982z"/>
	</g>
	<g>
		<path fill="#BD37A0" d="M0-31.022c17.133,0,31.022,13.889,31.022,31.022c0,17.133-13.89,31.022-31.022,31.022
			c-6.618,0-13.062-2.116-18.392-6.04L0,0V-31.022z"/>
	</g>
	<text transform="matrix(1 0 0 1 -16.8115 41.0225)" font-family="'ArialMT'" font-size="11">Russia</text>
</g>
<g transform="translate(500,500)">
	<g>
		<path fill="#D696C8" d="M-3.436-30.248c1.141-0.13,2.287-0.195,3.436-0.195V0L-3.436-30.248z"/>
	</g>
	<g>
		<path fill="#D16BBB" d="M-28.707,10.132c-5.596-15.854,2.721-33.243,18.575-38.839c2.167-0.765,4.413-1.282,6.696-1.541L0,0
			L-28.707,10.132z"/>
	</g>
	<g>
		<path fill="#BD37A0" d="M0-30.443c16.813,0,30.442,13.63,30.442,30.443c0,16.813-13.629,30.442-30.442,30.442
			c-12.907,0-24.411-8.139-28.707-20.311L0,0V-30.443z"/>
	</g>
	<text transform="matrix(1 0 0 1 -19.2656 40.4424)" font-family="'ArialMT'" font-size="11">Canada</text>
</g>
<g transform="translate(700,500)">
	<g>
		<path fill="#D696C8" d="M-6.803-26.495c2.223-0.57,4.508-0.859,6.803-0.859V0L-6.803-26.495z"/>
	</g>
	<g>
		<path fill="#D16BBB" d="M-25.679,9.428c-5.206-14.182,2.069-29.899,16.251-35.106c0.861-0.316,1.737-0.588,2.625-0.817L0,0
			L-25.679,9.428z"/>
	</g>
	<g>
		<path fill="#BD37A0" d="M0-27.354c15.107,0,27.354,12.247,27.354,27.354S15.107,27.354,0,27.354
			c-11.472,0-21.725-7.158-25.679-17.927L0,0V-27.354z"/>
	</g>
	<text transform="matrix(1 0 0 1 -21.3984 37.3545)" font-family="'ArialMT'" font-size="11">Australia</text>
</g>
<g transform="translate(100,700)">
	<g>
		<path fill="#D696C8" d="M-4.575-26.706c1.511-0.259,3.042-0.389,4.575-0.389V0L-4.575-26.706z"/>
	</g>
	<g>
		<path fill="#D16BBB" d="M-12.301,24.142c-13.333-6.793-18.635-23.109-11.841-36.442c3.883-7.621,11.137-12.961,19.567-14.405L0,0
			L-12.301,24.142z"/>
	</g>
	<g>
		<path fill="#BD37A0" d="M0-27.095c14.964,0,27.095,12.131,27.095,27.095S14.964,27.095,0,27.095
			c-4.276,0-8.491-1.012-12.301-2.953L0,0V-27.095z"/>
	</g>
	<text transform="matrix(1 0 0 1 -30.5776 37.0947)" font-family="'ArialMT'" font-size="11">South Korea</text>
</g>
<g transform="translate(300,700)">
	<g>
		<path fill="#D696C8" d="M-5.555-26.435c1.827-0.384,3.688-0.577,5.555-0.577V0L-5.555-26.435z"/>
	</g>
	<g>
		<path fill="#D16BBB" d="M-26.687,4.18c-2.224-14.202,7.063-27.658,21.131-30.614L0,0L-26.687,4.18z"/>
	</g>
	<g>
		<path fill="#BD37A0" d="M0-27.012c14.918,0,27.012,12.094,27.012,27.012S14.918,27.012,0,27.012
			c-13.305,0-24.628-9.688-26.687-22.832L0,0V-27.012z"/>
	</g>
	<text transform="matrix(1 0 0 1 -14.0669 37.0117)" font-family="'ArialMT'" font-size="11">Spain</text>
</g>
<g transform="translate(500,700)">
	<g>
		<path fill="#D696C8" d="M-5.939-25.086C-3.993-25.547-2-25.78,0-25.78V0L-5.939-25.086z"/>
	</g>
	<g>
		<path fill="#D16BBB" d="M-17.766,18.682C-28.083,8.87-28.493-7.447-18.682-17.766c3.447-3.624,7.875-6.168,12.742-7.32L0,0
			L-17.766,18.682z"/>
	</g>
	<g>
		<path fill="#BD37A0" d="M0-25.78c14.238,0,25.779,11.542,25.779,25.78S14.238,25.78,0,25.78c-6.613,0-12.973-2.542-17.766-7.099
			L0,0V-25.78z"/>
	</g>
	<text transform="matrix(1 0 0 1 -17.4209 35.7803)" font-family="'ArialMT'" font-size="11">Mexico</text>
</g>
<g transform="translate(700,700)">
	<g>
		<path fill="#D696C8" d="M-16.788-13.363C-12.717-18.478-6.537-21.457,0-21.457V0L-16.788-13.363z"/>
	</g>
	<g>
		<path fill="#D16BBB" d="M0-21.457c11.851,0,21.457,9.606,21.457,21.457c0,10.249-7.248,19.068-17.304,21.052L0,0V-21.457z"/>
	</g>
	<g>
		<path fill="#BD37A0" d="M4.153,21.052c-11.627,2.294-22.911-5.272-25.205-16.898c-1.22-6.182,0.34-12.587,4.264-17.517L0,0
			L4.153,21.052z"/>
	</g>
	<text transform="matrix(1 0 0 1 -23.8535 31.457)" font-family="'ArialMT'" font-size="11">Indonesia</text>
</g>
<g transform="translate(100,900)">
	<g>
		<path fill="#D696C8" d="M-3.707-20.871c1.224-0.217,2.464-0.326,3.707-0.326V0L-3.707-20.871z"/>
	</g>
	<g>
		<path fill="#D16BBB" d="M-21.05,2.489c-1.319-11.151,6.288-21.396,17.344-23.36L0,0L-21.05,2.489z"/>
	</g>
	<g>
		<path fill="#BD37A0" d="M0-21.197c11.707,0,21.197,9.49,21.197,21.197S11.707,21.197,0,21.197
			c-10.744,0-19.789-8.038-21.05-18.708L0,0V-21.197z"/>
	</g>
	<text transform="matrix(1 0 0 1 -29.6562 31.1973)" font-family="'ArialMT'" font-size="11">Netherlands</text>
</g>
<g transform="translate(300,900)">
	<g>
		<path fill="#D696C8" d="M-10.842-17.323c3.25-2.034,7.007-3.113,10.842-3.113V0L-10.842-17.323z"/>
	</g>
	<g>
		<path fill="#D16BBB" d="M-14.897,13.99c-7.727-8.229-7.32-21.161,0.908-28.888c0.968-0.909,2.022-1.722,3.148-2.426L0,0
			L-14.897,13.99z"/>
	</g>
	<g>
		<path fill="#BD37A0" d="M0-20.437c11.287,0,20.437,9.149,20.437,20.437S11.287,20.437,0,20.437
			c-5.643,0-11.035-2.333-14.897-6.446L0,0V-20.437z"/>
	</g>
	<text transform="matrix(1 0 0 1 -16.6045 30.4365)" font-family="'ArialMT'" font-size="11">Turkey</text>
</g>
<g transform="translate(500,900)">
	<g>
		<path fill="#D696C8" d="M-2.475-19.589c0.82-0.104,1.647-0.156,2.475-0.156V0L-2.475-19.589z"/>
	</g>
	<g>
		<path fill="#D16BBB" d="M0-19.745c10.904,0,19.745,8.841,19.745,19.745S10.904,19.745,0,19.745
			c-7.157,0-13.755-3.874-17.242-10.124L0,0V-19.745z"/>
	</g>
	<g>
		<path fill="#BD37A0" d="M-17.242,9.621c-5.313-9.523-1.901-21.55,7.621-26.863c2.21-1.233,4.636-2.03,7.146-2.347L0,0
			L-17.242,9.621z"/>
	</g>
	<text transform="matrix(1 0 0 1 -31.1895 29.7451)" font-family="'ArialMT'" font-size="11">Saudi Arabia</text>
</g>
<g transform="translate(700,900)">
	<g>
		<path fill="#D696C8" d="M-1.567-19.144c0.521-0.042,1.044-0.063,1.567-0.063V0L-1.567-19.144z"/>
	</g>
	<g>
		<path fill="#D16BBB" d="M-18.604,4.776c-2.639-10.274,3.552-20.742,13.827-23.38c1.053-0.271,2.126-0.451,3.209-0.54L0,0
			L-18.604,4.776z"/>
	</g>
	<g>
		<path fill="#BD37A0" d="M0-19.207c10.608,0,19.207,8.599,19.207,19.207S10.608,19.207,0,19.207
			c-8.769,0-16.424-5.938-18.604-14.431L0,0V-19.207z"/>
	</g>
	<text transform="matrix(1 0 0 1 -28.4297 29.207)" font-family="'ArialMT'" font-size="11">Switzerland</text>
</g>
<g transform="translate(100,1100)">
	<g>
		<path fill="#D696C8" d="M-15.516-7.13C-12.73-13.191-6.671-17.075,0-17.075V0L-15.516-7.13z"/>
	</g>
	<g>
		<path fill="#D16BBB" d="M-5.943,16.008c-8.841-3.282-13.347-13.109-10.065-21.95c0.149-0.402,0.313-0.798,0.492-1.188L0,0
			L-5.943,16.008z"/>
	</g>
	<g>
		<path fill="#BD37A0" d="M0-17.075c9.431,0,17.075,7.645,17.075,17.075S9.431,17.075,0,17.075c-2.029,0-4.041-0.361-5.943-1.067
			L0,0V-17.075z"/>
	</g>
	<text transform="matrix(1 0 0 1 -17.4238 27.0752)" font-family="'ArialMT'" font-size="11">Nigeria</text>
</g>
<g transform="translate(300,1100)">
	<g>
		<path fill="#D696C8" d="M-1.921-16.911c0.638-0.072,1.279-0.109,1.921-0.109V0L-1.921-16.911z"/>
	</g>
	<g>
		<path fill="#D16BBB" d="M-16.562,3.921c-2.166-9.146,3.494-18.317,12.641-20.483c0.66-0.156,1.328-0.272,2-0.349L0,0
			L-16.562,3.921z"/>
	</g>
	<g>
		<path fill="#BD37A0" d="M0-17.021C9.4-17.021,17.021-9.4,17.021,0S9.4,17.021,0,17.021c-7.89,0-14.745-5.422-16.562-13.1L0,0
			V-17.021z"/>
	</g>
	<text transform="matrix(1 0 0 1 -19.876 27.0205)" font-family="'ArialMT'" font-size="11">Sweden</text>
</g>
<g transform="translate(500,1100)">
	<g>
		<path fill="#D696C8" d="M-3.586-16.53c1.178-0.256,2.38-0.385,3.586-0.385V0L-3.586-16.53z"/>
	</g>
	<g>
		<path fill="#D16BBB" d="M-12.33,11.579c-6.396-6.81-6.059-17.515,0.751-23.909c2.234-2.099,4.997-3.551,7.993-4.2L0,0
			L-12.33,11.579z"/>
	</g>
	<g>
		<path fill="#BD37A0" d="M0-16.915c9.342,0,16.915,7.573,16.915,16.915S9.342,16.915,0,16.915c-4.671,0-9.133-1.932-12.33-5.336
			L0,0V-16.915z"/>
	</g>
	<text transform="matrix(1 0 0 1 -17.126 26.915)" font-family="'ArialMT'" font-size="11">Poland</text>
</g>
<g transform="translate(700,1100)">
	<g>
		<path fill="#D696C8" d="M-0.728-16.521c0.242-0.011,0.485-0.017,0.728-0.017V0L-0.728-16.521z"/>
	</g>
	<g>
		<path fill="#D16BBB" d="M-16.3-2.792c1.314-7.67,7.798-13.387,15.572-13.729L0,0L-16.3-2.792z"/>
	</g>
	<g>
		<path fill="#BD37A0" d="M0-16.537c9.133,0,16.537,7.404,16.537,16.537S9.133,16.537,0,16.537S-16.537,9.133-16.537,0
			c0-0.936,0.08-1.87,0.237-2.792L0,0V-16.537z"/>
	</g>
	<text transform="matrix(1 0 0 1 -19.8701 26.5371)" font-family="'ArialMT'" font-size="11">Belgium</text>
</g>
<g transform="translate(100,1300)">
	<g>
		<path fill="#D696C8" d="M-2.749-16.047c0.908-0.156,1.827-0.234,2.749-0.234V0L-2.749-16.047z"/>
	</g>
	<g>
		<path fill="#D16BBB" d="M-8.724,13.746c-7.592-4.817-9.841-14.878-5.023-22.47c2.466-3.886,6.461-6.547,10.998-7.323L0,0
			L-8.724,13.746z"/>
	</g>
	<g>
		<path fill="#BD37A0" d="M0-16.281c8.992,0,16.281,7.289,16.281,16.281S8.992,16.281,0,16.281c-3.089,0-6.115-0.879-8.724-2.535
			L0,0V-16.281z"/>
	</g>
	<text transform="matrix(1 0 0 1 -18.6431 26.2812)" font-family="'ArialMT'" font-size="11">Norway</text>
</g>
<g transform="translate(300,1300)">
	<g>
		<path fill="#D696C8" d="M-1.319-16.146C-0.88-16.181-0.44-16.199,0-16.199V0L-1.319-16.146z"/>
	</g>
	<g>
		<path fill="#D16BBB" d="M-14.079,8.012c-4.425-7.776-1.708-17.666,6.068-22.091c2.053-1.169,4.337-1.874,6.692-2.066L0,0
			L-14.079,8.012z"/>
	</g>
	<g>
		<path fill="#BD37A0" d="M0-16.199c8.946,0,16.199,7.253,16.199,16.199S8.946,16.199,0,16.199c-5.824,0-11.199-3.126-14.079-8.188
			L0,0V-16.199z"/>
	</g>
	<text transform="matrix(1 0 0 1 -17.1201 26.1992)" font-family="'ArialMT'" font-size="11">Taiwan</text>
</g>
<g transform="translate(500,1300)">
	<g>
		<path fill="#D696C8" d="M-8.955-12.309c2.603-1.894,5.737-2.913,8.955-2.913V0L-8.955-12.309z"/>
	</g>
	<g>
		<path fill="#D16BBB" d="M-8.364,12.718c-7.023-4.62-8.973-14.059-4.354-21.082c1.007-1.53,2.281-2.867,3.763-3.944L0,0
			L-8.364,12.718z"/>
	</g>
	<g>
		<path fill="#BD37A0" d="M0-15.222c8.406,0,15.222,6.815,15.222,15.222S8.406,15.222,0,15.222c-2.973,0-5.881-0.87-8.364-2.504L0,0
			V-15.222z"/>
	</g>
	<text transform="matrix(1 0 0 1 -23.5439 25.2217)" font-family="'ArialMT'" font-size="11">Argentina</text>
</g>
<g transform="translate(700,1300)">
	<g>
		<path fill="#D696C8" d="M-1.414-14.965c0.47-0.044,0.941-0.066,1.414-0.066V0L-1.414-14.965z"/>
	</g>
	<g>
		<path fill="#D16BBB" d="M-13.976,5.533c-3.056-7.719,0.724-16.453,8.442-19.509c1.319-0.522,2.706-0.855,4.119-0.989L0,0
			L-13.976,5.533z"/>
	</g>
	<g>
		<path fill="#BD37A0" d="M0-15.031c8.302,0,15.031,6.729,15.031,15.031S8.302,15.031,0,15.031c-6.166,0-11.706-3.766-13.976-9.498
			L0,0V-15.031z"/>
	</g>
	<text transform="matrix(1 0 0 1 -17.1172 25.0312)" font-family="'ArialMT'" font-size="11">Austria</text>
</g>
<g transform="translate(100,1500)">
	<g>
		<path fill="#D696C8" d="M-0.646-14.667c0.215-0.01,0.431-0.015,0.646-0.015V0L-0.646-14.667z"/>
	</g>
	<g>
		<path fill="#D16BBB" d="M0-14.682c8.108,0,14.682,6.573,14.682,14.682S8.108,14.682,0,14.682c-2.93,0-5.793-0.877-8.221-2.518L0,0
			V-14.682z"/>
	</g>
	<g>
		<path fill="#BD37A0" d="M-8.221,12.164c-6.718-4.541-8.483-13.668-3.943-20.386c2.603-3.851,6.875-6.241,11.518-6.445L0,0
			L-8.221,12.164z"/>
	</g>
	<text transform="matrix(1 0 0 1 -51.9678 24.6816)" font-family="'ArialMT'" font-size="11">United Arab Emirates</text>
</g>
<g transform="translate(300,1500)">
	<g>
		<path fill="#D696C8" d="M-9.346-11.013c2.61-2.216,5.922-3.432,9.346-3.432V0L-9.346-11.013z"/>
	</g>
	<g>
		<path fill="#D16BBB" d="M1.63,14.353c-7.926,0.9-15.082-4.796-15.982-12.723c-0.544-4.785,1.333-9.526,5.006-12.643L0,0
			L1.63,14.353z"/>
	</g>
	<g>
		<path fill="#BD37A0" d="M0-14.444c7.978,0,14.444,6.467,14.444,14.444c0,7.347-5.515,13.523-12.814,14.353L0,0V-14.444z"/>
	</g>
	<text transform="matrix(1 0 0 1 -9.4775 24.4443)" font-family="'ArialMT'" font-size="11">Iran</text>
</g>
<g transform="translate(500,1500)">
	<g>
		<path fill="#D696C8" d="M-7.639-12.205c2.29-1.433,4.938-2.193,7.639-2.193V0L-7.639-12.205z"/>
	</g>
	<g>
		<path fill="#D16BBB" d="M-2.787,14.126c-7.801-1.539-12.878-9.111-11.339-16.913c0.77-3.9,3.117-7.309,6.487-9.418L0,0
			L-2.787,14.126z"/>
	</g>
	<g>
		<path fill="#BD37A0" d="M0-14.398c7.952,0,14.398,6.446,14.398,14.398S7.952,14.398,0,14.398c-0.936,0-1.869-0.092-2.787-0.272
			L0,0V-14.398z"/>
	</g>
	<text transform="matrix(1 0 0 1 -23.2324 24.3984)" font-family="'ArialMT'" font-size="11">Colombia</text>
</g>
<g transform="translate(700,1500)">
	<g>
		<path fill="#D696C8" d="M-10.414-9.417C-7.753-12.36-3.969-14.041,0-14.041V0L-10.414-9.417z"/>
	</g>
	<g>
		<path fill="#D16BBB" d="M-2.371,13.839c-7.643-1.31-12.777-8.566-11.468-16.209c0.45-2.627,1.638-5.07,3.425-7.047L0,0
			L-2.371,13.839z"/>
	</g>
	<g>
		<path fill="#BD37A0" d="M0-14.041c7.754,0,14.041,6.287,14.041,14.041S7.754,14.041,0,14.041c-0.795,0-1.588-0.068-2.371-0.202
			L0,0V-14.041z"/>
	</g>
	<text transform="matrix(1 0 0 1 -21.0977 24.041)" font-family="'ArialMT'" font-size="11">Thailand</text>
</g>
<g transform="translate(100,1700)">
	<g>
		<path fill="#D696C8" d="M-3.742-12.88c1.216-0.353,2.476-0.532,3.742-0.532V0L-3.742-12.88z"/>
	</g>
	<g>
		<path fill="#D16BBB" d="M-13.36-1.179c0.486-5.511,4.306-10.157,9.619-11.701L0,0L-13.36-1.179z"/>
	</g>
	<g>
		<path fill="#BD37A0" d="M0-13.412c7.407,0,13.412,6.005,13.412,13.412S7.407,13.412,0,13.412S-13.412,7.407-13.412,0
			c0-0.394,0.017-0.786,0.052-1.179L0,0V-13.412z"/>
	</g>
	<text transform="matrix(1 0 0 1 -22.3115 23.4121)" font-family="'ArialMT'" font-size="11">Denmark</text>
</g>
<g transform="translate(300,1700)">
	<g>
		<path fill="#D696C8" d="M-2.08-13.133c0.688-0.108,1.384-0.163,2.08-0.163V0L-2.08-13.133z"/>
	</g>
	<g>
		<path fill="#D16BBB" d="M-11.182,7.194C-15.155,1.02-13.37-7.208-7.195-11.182c1.551-0.998,3.293-1.662,5.115-1.951L0,0
			L-11.182,7.194z"/>
	</g>
	<g>
		<path fill="#BD37A0" d="M0-13.296c7.344,0,13.296,5.952,13.296,13.296S7.344,13.296,0,13.296c-4.522,0-8.734-2.298-11.182-6.102
			L0,0V-13.296z"/>
	</g>
	<text transform="matrix(1 0 0 1 -29.6562 23.2959)" font-family="'ArialMT'" font-size="11">South Africa</text>
</g>
<g transform="translate(500,1700)">
	<g>
		<path fill="#D696C8" d="M-2.325-11.062c0.765-0.161,1.544-0.242,2.325-0.242V0L-2.325-11.062z"/>
	</g>
	<g>
		<path fill="#D16BBB" d="M-10.98-2.688c1.034-4.224,4.399-7.479,8.655-8.374L0,0L-10.98-2.688z"/>
	</g>
	<g>
		<path fill="#BD37A0" d="M0-11.305c6.243,0,11.305,5.062,11.305,11.305S6.243,11.305,0,11.305S-11.305,6.243-11.305,0
			c0-0.906,0.109-1.809,0.324-2.688L0,0V-11.305z"/>
	</g>
	<text transform="matrix(1 0 0 1 -18.0361 21.3047)" font-family="'ArialMT'" font-size="11">Greece</text>
</g>
<g transform="translate(700,1700)">
	<g>
		<path fill="#D696C8" d="M-3.03-9.961c0.982-0.299,2.004-0.451,3.03-0.451V0L-3.03-9.961z"/>
	</g>
	<g>
		<path fill="#D16BBB" d="M-6.33,8.267c-4.565-3.495-5.433-10.03-1.937-14.597c1.323-1.728,3.154-2.997,5.236-3.631L0,0L-6.33,8.267
			z"/>
	</g>
	<g>
		<path fill="#BD37A0" d="M0-10.412C5.75-10.412,10.412-5.75,10.412,0S5.75,10.412,0,10.412c-2.288,0-4.513-0.754-6.33-2.146L0,0
			V-10.412z"/>
	</g>
	<text transform="matrix(1 0 0 1 -25.6895 20.4121)" font-family="'ArialMT'" font-size="11">Venezuela</text>
</g>
<rect x="23.5" y="-85.5" fill="#BD37A0" width="24.532" height="24"/>
<rect x="54.556" y="-86" fill="none" width="102" height="25"/>
<text transform="matrix(1 0 0 1 54.5562 -77.48)" font-family="'MyriadPro-Regular'" font-size="12">Servicios</text>
<rect x="119.5" y="-85.5" fill="#D16BBB" width="24.532" height="24"/>
<rect x="150.556" y="-86" fill="none" width="102" height="25"/>
<text transform="matrix(1 0 0 1 150.5562 -77.48)" font-family="'MyriadPro-Regular'" font-size="12">Industria</text>
<rect x="213.596" y="-85.5" fill="#D696C8" width="24.532" height="24"/>
<rect x="244.652" y="-86" fill="none" width="102" height="25"/>
<text transform="matrix(1 0 0 1 244.6519 -77.48)" font-family="'MyriadPro-Regular'" font-size="12">Agricultura</text>
</svg>
